#N canvas -41 163 1608 901 16;
#X msg 472 278 get_pos;
#X obj 472 315 s \$0-pos-rcv;
#X obj 472 345 r \$0-pos;
#X obj 470 380 unpack f f;
#X obj 480 436 -;
#X obj 558 431 -;
#X obj 626 605 &&;
#X obj 548 695 select 1 0;
#X obj 600 641 change;
#X obj 473 471 moses 0;
#X obj 683 473 moses 0;
#X msg 679 505 0;
#X msg 470 502 0;
#X obj 764 235 list prepend 0;
#X obj 748 300 route -1;
#X obj 764 264 route 1 0;
#X obj 870 390 route update;
#X obj 688 385 unpack f f f;
#X obj 915 497 f;
#X msg 657 434 0;
#X obj 898 295 list split 1;
#X obj 898 324 list prepend;
#X obj 898 353 list trim;
#X obj 316 21 iemguts/receivecanvas 1;
#X obj 105 402 list prepend 0;
#X obj 105 433 route 0 1;
#N canvas 545 304 1136 558 savestate 0;
#X obj 157 276 savestate;
#X obj 269 320 s \$0-save;
#X obj 142 107 v \$0-w;
#X obj 157 305 list trim;
#X obj 189 32 r \$0-save;
#X obj 189 61 t b b;
#X obj 163 230 list;
#X obj 19 32 loadbang;
#X obj 19 106 spigot 1;
#X msg 88 76 0;
#X obj 140 433 s \$0-w;
#X msg 140 185 -size \$1;
#X obj 225 105 v \$0-back_color;
#X obj 391 103 v \$0-cursor_color;
#X obj 579 99 v \$0-front_color;
#X msg 225 134 -back_color \$1;
#X msg 395 134 -cursor_color \$1;
#X msg 565 134 -front_color \$1;
#X obj 233 441 s \$0-back_color;
#X obj 540 468 s \$0-cursor_color;
#X obj 404 429 s \$0-front_color;
#X obj 518 203 v \$0-jump_on_click;
#X msg 518 232 -jump_on_click \$1;
#X obj 590 437 s \$0-jump_on_click;
#X obj 160 385 route -size -back_color -front_color -cursor_color -jump_on_click
-mode;
#X obj 804 436 s \$0-mode;
#X obj 780 96 v \$0-mode;
#X msg 780 125 -mode \$1;
#X msg 16 279 -size 100 \, -back_color 10 \, -front_color 1 \, -cursor_color
-1, f 10;
#X connect 0 0 3 0;
#X connect 0 0 9 0;
#X connect 0 1 1 0;
#X connect 2 0 11 0;
#X connect 3 0 24 0;
#X connect 4 0 5 0;
#X connect 5 0 2 0;
#X connect 5 0 26 0;
#X connect 5 1 12 0;
#X connect 5 1 14 0;
#X connect 5 1 13 0;
#X connect 5 1 21 0;
#X connect 6 0 0 0;
#X connect 7 0 8 0;
#X connect 8 0 28 0;
#X connect 9 0 8 1;
#X connect 11 0 6 0;
#X connect 12 0 15 0;
#X connect 13 0 16 0;
#X connect 14 0 17 0;
#X connect 15 0 6 0;
#X connect 16 0 6 0;
#X connect 17 0 6 0;
#X connect 21 0 22 0;
#X connect 22 0 6 0;
#X connect 24 0 10 0;
#X connect 24 1 18 0;
#X connect 24 2 20 0;
#X connect 24 3 19 0;
#X connect 24 4 23 0;
#X connect 24 5 25 0;
#X connect 26 0 27 0;
#X connect 27 0 6 0;
#X connect 28 0 24 0;
#X restore 1408 282 pd savestate;
#X obj 1409 234 namecanvas \$0-this;
#N canvas 0 50 1005 538 resize 0;
#X obj 51 17 inlet;
#X msg -74 585 dirty 1;
#X obj 157 237 spigot;
#X msg 109 186 1;
#X msg 78 247 0;
#X obj 307 211 t l b;
#X obj 110 479 -;
#X obj 247 472 -;
#X obj 153 551 +;
#X obj 247 546 +;
#X obj 57 106 spigot 1;
#X obj 57 135 t b b;
#X msg 129 73 0;
#X msg 79 281 1;
#X obj 154 322 unpack f f f;
#X obj 156 271 route mouseup motion;
#X obj 108 360 t f f b f;
#X obj 229 357 t f f b f;
#X obj 289 433 spigot 1;
#X msg 367 397 0;
#X obj 143 441 spigot 1;
#X msg 212 405 0;
#X obj 235 85 iemguts/receivecanvas 2;
#X obj -71 611 iemguts/sendcanvas 2;
#X obj 772 140 r \$0-w;
#X obj 601 310 t b a;
#X msg 559 346 dirty 0;
#X obj 555 384 s \$0-this;
#X msg 546 156 120 254;
#X text 673 383 the parent canvas;
#X obj 276 585 max 10;
#X obj 298 515 r \$0-w;
#X obj 254 616 s \$0-w;
#X obj 110 508 / 2;
#X obj 247 501 / 2;
#X msg 483 279 donecanvasdialog 1 -1 3 0 -1 1 1 \$1 \$1 100 100;
#X obj 774 186 s \$0-h;
#X connect 0 0 10 0;
#X connect 1 0 23 0;
#X connect 2 0 15 0;
#X connect 3 0 2 1;
#X connect 4 0 2 1;
#X connect 6 0 33 0;
#X connect 7 0 34 0;
#X connect 8 0 9 0;
#X connect 9 0 30 0;
#X connect 10 0 11 0;
#X connect 11 0 3 0;
#X connect 11 1 12 0;
#X connect 11 1 1 0;
#X connect 12 0 10 1;
#X connect 13 0 10 1;
#X connect 13 0 20 1;
#X connect 13 0 18 1;
#X connect 14 0 16 0;
#X connect 14 1 17 0;
#X connect 15 0 4 0;
#X connect 15 0 13 0;
#X connect 15 1 14 0;
#X connect 16 0 6 1;
#X connect 16 1 6 0;
#X connect 16 2 21 0;
#X connect 16 3 20 0;
#X connect 17 0 7 1;
#X connect 17 1 7 0;
#X connect 17 2 19 0;
#X connect 17 3 18 0;
#X connect 18 0 7 1;
#X connect 19 0 18 1;
#X connect 20 0 6 1;
#X connect 21 0 20 1;
#X connect 22 0 2 0;
#X connect 24 0 35 0;
#X connect 24 0 36 0;
#X connect 25 0 26 0;
#X connect 25 1 27 0;
#X connect 26 0 27 0;
#X connect 28 0 35 0;
#X connect 30 0 32 0;
#X connect 31 0 9 1;
#X connect 33 0 8 0;
#X connect 34 0 8 1;
#X connect 35 0 25 0;
#X restore 148 470 pd resize;
#X obj 594 494 r \$0-w;
#X obj 796 475 r \$0-h;
#X obj 581 958 outlet;
#X obj 100 99 cnv 5 5 5 \$0-pos \$0-pos-rcv empty 20 12 0 14 -66577
-66577 0;
#X msg 912 466 -1;
#X obj 601 336 route remove update pressure;
#X obj 1129 727 outlet;
#X msg 1114 455 \$1;
#X obj 611 41 r MULTITOUCH.COOKED;
#X obj 611 185 spigot;
#X obj 898 37 r MULTITOUCH.ACTIVE;
#X obj 898 66 t b;
#X msg 847 178 0;
#X msg 843 82 stop;
#X msg 652 142 1;
#X obj 843 117 delay 10;
#X obj 639 110 delay 1;
#X obj 536 523 / 60;
#X obj 745 511 / 60;
#X obj 617 568 < 1;
#X obj 745 540 < 1;
#X obj 858 554 spigot;
#X obj 525 546 t f f;
#X text 1291 10 format d'entrée MULTITOUCH.COOKED;
#X text 1407 44 <slot> remove;
#X text 1410 63 <slot> update <x> <y>;
#X text 1411 83 <slot> pressure <a>;
#X obj 658 679 r \$0-back_color;
#X obj 262 660 r \$0-front_color;
#X msg 498 754 color 1 1 1;
#X msg 660 754 color 10 10 10;
#X msg 663 719 set color \$1 \$1 \$1;
#X msg 263 696 set color \$1 \$1 \$1;
#X obj 956 552 - 0.5;
#X obj 937 622 atan2;
#X obj 100 100 bng 317 250 50 0 empty \$0-bang empty 17 7 0 10 -233017
-233017 -233017;
#X msg 98 67 size \$1;
#X obj 98 37 r \$0-w;
#X obj 379 309 cnv 10 10 10 empty \$0-cursor1 empty 20 12 0 14 -1 -66577
0;
#X obj 351 296 cnv 10 10 10 empty \$0-cursor2 empty 20 12 0 14 -1 -66577
0;
#X obj 323 284 cnv 10 10 10 empty \$0-cursor3 empty 20 12 0 14 -1 -66577
0;
#X obj 1229 465 -;
#X obj 1210 369 t f f f;
#X obj 1276 409 spigot 1;
#X obj 1234 497 t f b;
#X msg 1322 465 0;
#X msg 1331 363 1;
#X obj 1225 630 +;
#N canvas 0 50 450 300 modulo 0;
#X obj 140 91 moses 3.14159;
#X obj 118 150 moses -3.14159;
#X obj 119 38 inlet;
#X obj 143 241 outlet;
#X obj 118 179 + 6.28319;
#X obj 286 145 - 6.28319;
#X connect 0 0 1 0;
#X connect 0 1 5 0;
#X connect 1 0 4 0;
#X connect 1 1 3 0;
#X connect 2 0 0 0;
#X connect 4 0 3 0;
#X connect 5 0 3 0;
#X restore 1227 668 pd modulo 2pi;
#X obj 1009 809 max -2.8;
#X obj 1013 843 min 2.8;
#N canvas 0 50 629 675 cursor3 0;
#X obj 29 20 inlet;
#X obj 140 146 sin;
#X obj 303 136 cos;
#X msg 141 429 pos \$1 \$2;
#X obj 142 399 pack f f;
#X obj 136 93 t f f;
#X obj 215 16 r \$0-w;
#X obj 127 248 * 0.5;
#X obj 125 286 + 100;
#X obj 277 302 + 100;
#X obj 277 273 * -0.5;
#X obj 204 236 * 0.5;
#X obj 128 216 * 54;
#X obj 281 244 * 54;
#X obj 377 250 * 0.5;
#X obj 277 331 + 30;
#X obj 132 326 + 30;
#X obj 132 355 - 5;
#X obj 277 360 - 5;
#X obj 363 115 t f f;
#X obj 130 62 f;
#X obj 191 150 - 10;
#X obj 375 160 - 10;
#X obj 177 197 * 0.5;
#X obj 346 206 * 0.5;
#X obj 153 479 s \$0-cursor3;
#X obj 215 45 t b f f f;
#X obj 380 425 r \$0-cursor_color;
#X msg 380 454 color \$1 \$1;
#X connect 0 0 20 0;
#X connect 1 0 12 0;
#X connect 2 0 13 0;
#X connect 3 0 25 0;
#X connect 4 0 3 0;
#X connect 5 0 1 0;
#X connect 5 1 2 0;
#X connect 6 0 26 0;
#X connect 7 0 8 0;
#X connect 8 0 16 0;
#X connect 9 0 15 0;
#X connect 10 0 9 0;
#X connect 11 0 16 1;
#X connect 12 0 7 0;
#X connect 13 0 10 0;
#X connect 14 0 15 1;
#X connect 15 0 18 0;
#X connect 16 0 17 0;
#X connect 17 0 4 0;
#X connect 18 0 4 1;
#X connect 19 0 22 0;
#X connect 19 1 14 0;
#X connect 20 0 5 0;
#X connect 21 0 23 0;
#X connect 22 0 24 0;
#X connect 23 0 12 1;
#X connect 24 0 13 1;
#X connect 26 0 20 0;
#X connect 26 1 21 0;
#X connect 26 2 11 0;
#X connect 26 3 19 0;
#X connect 27 0 28 0;
#X connect 28 0 25 0;
#X restore 978 982 pd cursor3;
#N canvas 0 50 629 675 cursor2 0;
#X obj 29 20 inlet;
#X obj 140 146 sin;
#X obj 303 136 cos;
#X msg 141 429 pos \$1 \$2;
#X obj 142 399 pack f f;
#X obj 136 93 t f f;
#X obj 215 16 r \$0-w;
#X obj 127 248 * 0.5;
#X obj 125 286 + 100;
#X obj 277 302 + 100;
#X obj 277 273 * -0.5;
#X obj 204 236 * 0.5;
#X obj 128 216 * 54;
#X obj 281 244 * 54;
#X obj 377 250 * 0.5;
#X obj 277 331 + 30;
#X obj 132 326 + 30;
#X obj 132 355 - 5;
#X obj 277 360 - 5;
#X obj 363 115 t f f;
#X obj 130 62 f;
#X obj 191 150 - 10;
#X obj 375 160 - 10;
#X obj 215 45 t b f f f;
#X obj 153 479 s \$0-cursor2;
#X obj 177 197 * 0.7;
#X obj 346 206 * 0.7;
#X obj 380 425 r \$0-cursor_color;
#X msg 380 454 color \$1 \$1;
#X connect 0 0 20 0;
#X connect 1 0 12 0;
#X connect 2 0 13 0;
#X connect 3 0 24 0;
#X connect 4 0 3 0;
#X connect 5 0 1 0;
#X connect 5 1 2 0;
#X connect 6 0 23 0;
#X connect 7 0 8 0;
#X connect 8 0 16 0;
#X connect 9 0 15 0;
#X connect 10 0 9 0;
#X connect 11 0 16 1;
#X connect 12 0 7 0;
#X connect 13 0 10 0;
#X connect 14 0 15 1;
#X connect 15 0 18 0;
#X connect 16 0 17 0;
#X connect 17 0 4 0;
#X connect 18 0 4 1;
#X connect 19 0 22 0;
#X connect 19 1 14 0;
#X connect 20 0 5 0;
#X connect 21 0 25 0;
#X connect 22 0 26 0;
#X connect 23 0 20 0;
#X connect 23 1 21 0;
#X connect 23 2 11 0;
#X connect 23 3 19 0;
#X connect 25 0 12 1;
#X connect 26 0 13 1;
#X connect 27 0 28 0;
#X connect 28 0 24 0;
#X restore 980 1016 pd cursor2;
#N canvas 0 50 629 675 cursor1 0;
#X obj 29 20 inlet;
#X obj 140 146 sin;
#X obj 303 136 cos;
#X msg 141 429 pos \$1 \$2;
#X obj 142 399 pack f f;
#X obj 136 93 t f f;
#X obj 215 16 r \$0-w;
#X obj 127 248 * 0.5;
#X obj 125 286 + 100;
#X obj 277 302 + 100;
#X obj 277 273 * -0.5;
#X obj 204 236 * 0.5;
#X obj 128 216 * 54;
#X obj 281 244 * 54;
#X obj 377 250 * 0.5;
#X obj 277 331 + 30;
#X obj 132 326 + 30;
#X obj 132 355 - 5;
#X obj 277 360 - 5;
#X obj 363 115 t f f;
#X obj 130 62 f;
#X obj 191 150 - 10;
#X obj 375 160 - 10;
#X obj 215 45 t b f f f;
#X obj 153 479 s \$0-cursor1;
#X obj 177 197 * 0.9;
#X obj 346 206 * 0.9;
#X obj 380 425 r \$0-cursor_color;
#X msg 380 454 color \$1 \$1;
#X connect 0 0 20 0;
#X connect 1 0 12 0;
#X connect 2 0 13 0;
#X connect 3 0 24 0;
#X connect 4 0 3 0;
#X connect 5 0 1 0;
#X connect 5 1 2 0;
#X connect 6 0 23 0;
#X connect 7 0 8 0;
#X connect 8 0 16 0;
#X connect 9 0 15 0;
#X connect 10 0 9 0;
#X connect 11 0 16 1;
#X connect 12 0 7 0;
#X connect 13 0 10 0;
#X connect 14 0 15 1;
#X connect 15 0 18 0;
#X connect 16 0 17 0;
#X connect 17 0 4 0;
#X connect 18 0 4 1;
#X connect 19 0 22 0;
#X connect 19 1 14 0;
#X connect 20 0 5 0;
#X connect 21 0 25 0;
#X connect 22 0 26 0;
#X connect 23 0 20 0;
#X connect 23 1 21 0;
#X connect 23 2 11 0;
#X connect 23 3 19 0;
#X connect 25 0 12 1;
#X connect 26 0 13 1;
#X connect 27 0 28 0;
#X connect 28 0 24 0;
#X restore 976 1048 pd cursor1;
#X obj 1013 872 t f f f;
#X obj 893 905 / 5.6;
#X obj 893 934 + 0.5;
#N canvas 146 694 402 326 jogzone_properties(\$0) 0;
#X floatatom 126 128 5 0 0 0 size #0-w-rcv #0-w-snd;
#X floatatom 128 191 5 0 0 0 back_color #0-bc-rcv #0-bc-snd;
#X floatatom 128 221 5 0 0 0 front_color #0-fc-rcv #0-fc-snd;
#N canvas 0 50 450 300 (subpatch) 0;
#X obj 100 100 cnv 20 20 20 empty \$0-bc_cnv-rcv empty 20 12 0 14 -233017
-66577 0;
#X obj 170 75 r \$0-back_color;
#X msg 170 104 color \$1 \$1;
#X obj 170 132 s \$0-bc_cnv-rcv;
#X connect 1 0 2 0;
#X connect 2 0 3 0;
#X coords 0 -1 1 1 20 20 2 100 100;
#X restore 198 193 pd;
#N canvas 0 50 450 300 (subpatch) 0;
#X obj 100 100 cnv 20 20 20 empty \$0-fc_cnv-rcv empty 20 12 0 14 -166441
-66577 0;
#X msg 170 104 color \$1 \$1;
#X obj 170 75 r \$0-front_color;
#X obj 170 132 s \$0-fc_cnv-rcv;
#X connect 1 0 3 0;
#X connect 2 0 1 0;
#X coords 0 -1 1 1 20 20 2 100 100;
#X restore 198 223 pd;
#X floatatom 129 254 5 0 0 0 cursor_color #0-cc-rcv #0-cc-snd;
#N canvas 0 50 450 300 (subpatch) 0;
#X obj 100 100 cnv 20 20 20 empty \$0-cc_cnv-rcv empty 20 12 0 14 -1
-66577 0;
#X msg 170 104 color \$1 \$1;
#X obj 170 75 r \$0-cursor_color;
#X obj 170 132 s \$0-cc_cnv-rcv;
#X connect 1 0 3 0;
#X connect 2 0 1 0;
#X coords 0 -1 1 1 20 20 2 100 100;
#X restore 199 256 pd;
#X obj 197 85 tgl 20 0 \$0-jump_on_click \$0-jump_on_click-rcv jump_on_click
-100 7 0 12 -262144 -1 -1 0 1;
#X obj 133 32 vradio 20 1 0 2 \$0-mode \$0-mode-rcv cursor_mode -100
-10 0 15 -262144 -1 -1 1;
#X text 161 44 infinite (-pi \, +pi);
#X text 161 24 one rotation (0 \, 1);
#X obj 300 264 bng 40 250 50 0 \$0-ok empty OK 5 20 0 20 -204786 -1
-1;
#X restore 1116 153 pd jogzone_properties(\$0);
#N canvas 0 50 899 442 gui_properties 0;
#X msg 88 180 set \$1;
#X obj 86 78 max 10;
#X obj 86 107 s \$0-w;
#X obj 92 154 r \$0-w;
#X obj 86 49 r \$0-w-snd;
#X obj 90 207 s \$0-w-rcv;
#X msg 253 181 set \$1;
#X obj 251 50 r \$0-bc-snd;
#X obj 255 208 s \$0-bc-rcv;
#X obj 257 155 r \$0-back_color;
#X obj 251 108 s \$0-back_color;
#X msg 446 182 set \$1;
#X obj 444 51 r \$0-fc-snd;
#X obj 444 109 s \$0-front_color;
#X obj 450 156 r \$0-front_color;
#X obj 448 209 s \$0-fc-rcv;
#X msg 656 182 set \$1;
#X obj 654 51 r \$0-cc-snd;
#X obj 654 109 s \$0-cursor_color;
#X obj 660 156 r \$0-cursor_color;
#X obj 658 209 s \$0-cc-rcv;
#X obj 223 298 r \$0-jump_on_click;
#X msg 223 327 set \$1;
#X obj 223 356 s \$0-jump_on_click-rcv;
#X msg 526 323 set \$1;
#X obj 526 294 r \$0-mode;
#X obj 526 352 s \$0-mode-rcv;
#X connect 0 0 5 0;
#X connect 1 0 2 0;
#X connect 3 0 0 0;
#X connect 4 0 1 0;
#X connect 6 0 8 0;
#X connect 7 0 10 0;
#X connect 9 0 6 0;
#X connect 11 0 15 0;
#X connect 12 0 13 0;
#X connect 14 0 11 0;
#X connect 16 0 20 0;
#X connect 17 0 18 0;
#X connect 19 0 16 0;
#X connect 21 0 22 0;
#X connect 22 0 23 0;
#X connect 24 0 26 0;
#X connect 25 0 24 0;
#X restore 1115 187 pd gui_properties;
#X obj 1114 128 s pd-jogzone_properties(\$0);
#X msg 1121 88 vis 1;
#X obj 1125 50 iemguts/propertybang;
#X obj 499 818 s \$0-bang;
#X msg 646 789 color \$1 \$1 \$1;
#X obj 1070 586 r \$0-jump_on_click;
#X obj 937 680 route 1 0;
#X obj 1099 663 r \$0-mode;
#X obj 971 742 list prepend 0;
#X obj 885 840 t f f f;
#X obj 971 771 route 1 0;
#X obj 937 651 list prepend 0;
#X obj 1207 89 r \$0-ok;
#X msg 1207 118 vis 0;
#X obj 1013 197 inlet;
#X obj 1194 862 t f f;
#X floatatom 594 523 5 0 0 0 - - -;
#X floatatom 796 504 5 0 0 0 - - -;
#X obj 858 583 - 0.5;
#X obj 843 1044 outlet;
#X obj 572 895 pipe 0;
#X obj 990 925 spigot 1;
#X obj 1177 934 route off;
#X msg 1177 963 1;
#X obj 1261 968 t f b;
#X msg 1323 1004 0;
#X obj 1047 242 route float set ext_feedback;
#X text 1298 928 ext. feedback;
#X obj 957 588 * -1;
#X msg 879 791 0;
#X obj 871 750 loadbang;
#X floatatom 858 657 5 0 0 0 - - -;
#N canvas 0 50 1202 739 monoclickmode 0;
#X obj 31 11 inlet;
#X msg 74 419 0;
#X msg 42 178 1;
#X obj 30 41 t b;
#X obj 43 478 outlet;
#X obj 35 144 select 0;
#X text 251 111 Pour utiliser la souris quand pas en mode multitouch
;
#X obj 25 106 v TRACKED.SLOTS;
#X obj 30 70 delay 1;
#X obj 222 481 outlet;
#X obj 234 223 iemguts/receivecanvas 2;
#X obj 231 290 spigot;
#X msg 325 261 0;
#X msg 181 256 1;
#X obj 239 329 route motion mouseup;
#X obj 774 44 inlet zoom;
#X obj 340 394 unpack f f f;
#X obj 340 423 / 1;
#X obj 393 427 / 1;
#X obj 344 456 pack f f f;
#X obj 533 369 t f f;
#X obj 516 47 inlet mouse;
#X obj 181 411 list append;
#X obj 179 442 list split 2;
#X obj 48 295 t f b b;
#X connect 0 0 3 0;
#X connect 1 0 4 0;
#X connect 2 0 24 0;
#X connect 3 0 8 0;
#X connect 5 0 2 0;
#X connect 7 0 5 0;
#X connect 8 0 7 0;
#X connect 10 0 11 0;
#X connect 11 0 14 0;
#X connect 12 0 11 1;
#X connect 13 0 11 1;
#X connect 14 0 16 0;
#X connect 14 1 1 0;
#X connect 14 1 12 0;
#X connect 15 0 20 0;
#X connect 16 0 17 0;
#X connect 16 1 18 0;
#X connect 16 2 19 2;
#X connect 17 0 19 0;
#X connect 18 0 19 1;
#X connect 19 0 9 0;
#X connect 20 0 17 1;
#X connect 20 1 18 1;
#X connect 21 0 22 1;
#X connect 22 0 23 0;
#X connect 23 0 16 0;
#X connect 24 0 4 0;
#X connect 24 1 13 0;
#X connect 24 2 22 0;
#X restore 123 529 pd monoclickmode;
#X obj 316 44 route editmode mouse zoom;
#X obj 646 81 t b b;
#X obj 1326 616 s;
#X msg 1413 580 symbol slot-\$1;
#X obj 1324 535 t b f;
#X text 1396 530 empêcher la simulation de clicks une fois que le
touch event est capturé;
#X msg 1314 578 bypass 1;
#X connect 0 0 1 0;
#X connect 2 0 3 0;
#X connect 3 0 4 1;
#X connect 3 1 5 1;
#X connect 4 0 9 0;
#X connect 5 0 10 0;
#X connect 6 0 8 0;
#X connect 6 0 50 1;
#X connect 7 0 58 0;
#X connect 7 0 18 0;
#X connect 7 1 59 0;
#X connect 7 1 75 0;
#X connect 8 0 13 1;
#X connect 8 0 7 0;
#X connect 8 0 108 0;
#X connect 9 0 12 0;
#X connect 9 1 46 0;
#X connect 10 0 11 0;
#X connect 10 1 47 0;
#X connect 11 0 6 1;
#X connect 12 0 6 0;
#X connect 13 0 15 0;
#X connect 14 0 34 0;
#X connect 15 0 14 0;
#X connect 15 1 20 0;
#X connect 16 0 17 0;
#X connect 17 0 4 0;
#X connect 17 1 5 0;
#X connect 17 2 18 1;
#X connect 18 0 14 1;
#X connect 18 0 125 0;
#X connect 19 0 8 0;
#X connect 20 0 21 0;
#X connect 20 1 21 1;
#X connect 21 0 22 0;
#X connect 22 0 16 0;
#X connect 23 0 121 0;
#X connect 24 0 25 0;
#X connect 25 0 120 0;
#X connect 25 1 28 0;
#X connect 29 0 46 1;
#X connect 29 0 104 0;
#X connect 30 0 47 1;
#X connect 30 0 105 0;
#X connect 33 0 18 0;
#X connect 34 0 19 0;
#X connect 34 0 33 0;
#X connect 34 1 17 0;
#X connect 34 2 36 0;
#X connect 36 0 35 0;
#X connect 37 0 38 0;
#X connect 38 0 13 0;
#X connect 39 0 40 0;
#X connect 40 0 44 0;
#X connect 41 0 38 1;
#X connect 42 0 44 0;
#X connect 43 0 38 1;
#X connect 44 0 41 0;
#X connect 45 0 42 0;
#X connect 45 0 43 0;
#X connect 46 0 51 0;
#X connect 47 0 49 0;
#X connect 47 0 62 0;
#X connect 48 0 6 0;
#X connect 49 0 6 1;
#X connect 50 0 106 0;
#X connect 51 0 50 0;
#X connect 51 1 48 0;
#X connect 56 0 60 0;
#X connect 56 0 92 0;
#X connect 57 0 61 0;
#X connect 58 0 91 0;
#X connect 59 0 91 0;
#X connect 60 0 59 0;
#X connect 61 0 58 0;
#X connect 62 0 116 0;
#X connect 63 0 99 0;
#X connect 63 0 119 0;
#X connect 64 0 24 0;
#X connect 65 0 64 0;
#X connect 66 0 65 0;
#X connect 70 0 73 0;
#X connect 71 0 70 1;
#X connect 71 1 70 0;
#X connect 71 2 72 0;
#X connect 72 0 70 1;
#X connect 73 0 76 0;
#X connect 73 1 74 0;
#X connect 74 0 72 1;
#X connect 75 0 72 1;
#X connect 76 0 77 0;
#X connect 77 0 96 0;
#X connect 78 0 79 0;
#X connect 79 0 83 0;
#X connect 83 0 84 0;
#X connect 83 1 109 0;
#X connect 83 2 76 1;
#X connect 84 0 85 0;
#X connect 85 0 107 0;
#X connect 89 0 88 0;
#X connect 90 0 89 0;
#X connect 92 0 91 0;
#X connect 93 0 99 1;
#X connect 94 0 96 0;
#X connect 94 1 71 0;
#X connect 95 0 96 1;
#X connect 96 0 98 0;
#X connect 97 0 107 0;
#X connect 97 1 109 0;
#X connect 97 2 76 1;
#X connect 98 0 97 0;
#X connect 98 1 78 0;
#X connect 99 0 94 0;
#X connect 100 0 101 0;
#X connect 101 0 88 0;
#X connect 102 0 114 0;
#X connect 103 0 109 0;
#X connect 103 1 76 1;
#X connect 106 0 63 0;
#X connect 108 0 31 0;
#X connect 109 0 80 0;
#X connect 109 0 82 0;
#X connect 109 0 81 0;
#X connect 110 0 111 0;
#X connect 110 1 112 0;
#X connect 111 0 109 1;
#X connect 112 0 80 0;
#X connect 112 0 82 0;
#X connect 112 0 81 0;
#X connect 112 1 113 0;
#X connect 113 0 109 1;
#X connect 114 0 96 0;
#X connect 114 1 103 0;
#X connect 114 2 110 0;
#X connect 116 0 63 1;
#X connect 117 0 97 0;
#X connect 118 0 117 0;
#X connect 120 0 8 0;
#X connect 120 1 17 0;
#X connect 121 0 24 1;
#X connect 121 1 122 0;
#X connect 121 1 120 1;
#X connect 121 2 120 2;
#X connect 122 0 45 0;
#X connect 122 1 0 0;
#X connect 124 0 123 1;
#X connect 125 0 127 0;
#X connect 125 1 124 0;
#X connect 127 0 123 0;
#X coords 0 -1 1 1 317 317 2 100 100;
