#N canvas 400 162 1242 654 16;
#X obj 518 338 v MULTITOUCH.SLOT.ID;
#X msg 594 478 symbol \$1-slot;
#X obj 521 388 select 0;
#X obj 569 601 s;
#X obj 196 321 unpack f f;
#X msg 565 552 send_to \$1;
#X obj 202 472 +;
#X obj 214 566 t f f;
#X obj 519 156 inlet;
#X obj 214 624 outlet;
#X obj 456 25 loadbang;
#X obj 456 54 list append \$1;
#X obj 456 83 select x y;
#X obj 196 350 *;
#X obj 293 356 *;
#X obj 196 379 +;
#X msg 456 112 1;
#X msg 510 117 -1;
#X obj 199 434 * \$2;
#X obj 640 64 f \$2;
#X obj 640 93 select 0;
#X msg 640 122 1;
#X obj 552 247 spigot 1;
#X msg 700 269 0;
#X obj 231 143 route list no_mouse remove;
#X obj 565 525 list append \$0-from_slot;
#X obj 242 91 r \$0-from_slot;
#X msg 653 181 1;
#X obj 318 189 tgl 15 0 empty empty empty 17 7 0 10 -262144 -1 -1 0
1;
#X obj 382 186 bng 15 250 50 0 empty empty empty 17 7 0 10 -262144
-1 -1;
#X obj 513 292 t b;
#X obj 519 185 t f f;
#X obj 813 166 inlet;
#X obj 874 551 outlet;
#X obj 589 432 t b f b b;
#X msg 849 486 1;
#X msg 845 407 0;
#X obj 202 501 max 0;
#X obj 202 530 min 127;
#X connect 0 0 2 0;
#X connect 1 0 3 1;
#X connect 2 1 34 0;
#X connect 4 0 13 0;
#X connect 4 1 14 0;
#X connect 5 0 3 0;
#X connect 6 0 37 0;
#X connect 7 0 9 0;
#X connect 7 1 6 1;
#X connect 8 0 31 0;
#X connect 10 0 11 0;
#X connect 10 0 19 0;
#X connect 11 0 12 0;
#X connect 12 0 16 0;
#X connect 12 1 17 0;
#X connect 13 0 15 0;
#X connect 14 0 15 1;
#X connect 15 0 18 0;
#X connect 16 0 13 1;
#X connect 17 0 14 1;
#X connect 18 0 6 0;
#X connect 19 0 20 0;
#X connect 20 0 21 0;
#X connect 21 0 18 1;
#X connect 22 0 30 0;
#X connect 23 0 22 1;
#X connect 23 0 0 0;
#X connect 24 0 4 0;
#X connect 24 1 28 0;
#X connect 24 2 27 0;
#X connect 24 2 29 0;
#X connect 24 2 36 0;
#X connect 25 0 5 0;
#X connect 26 0 24 0;
#X connect 27 0 22 1;
#X connect 30 0 0 0;
#X connect 31 1 6 1;
#X connect 32 0 22 0;
#X connect 34 0 25 0;
#X connect 34 1 1 0;
#X connect 34 2 23 0;
#X connect 34 3 35 0;
#X connect 35 0 33 0;
#X connect 36 0 33 0;
#X connect 37 0 38 0;
#X connect 38 0 7 0;
#X coords 0 654 1 653 85 60 0;
