#N canvas 0 57 1920 1023 16;
#X obj 95 50 inlet;
#X obj 63 619 outlet;
#X obj 80 455 pack f f;
#X obj 48 350 f, f 4;
#X obj 49 384 spigot;
#X obj 154 291 t b f b;
#X msg 218 340 1;
#X obj 288 259 select -1;
#X msg 282 293 0;
#X obj 81 134 route MT_POSITION_X MT_POSITION_Y;
#X msg 80 484 update \$1 \$2;
#X msg 301 421 remove;
#X obj 300 170 route MT_TRACKING_ID MT_TOUCH_LENGTH MT_TOUCH_WIDTH
;
#X obj 440 291 f, f 4;
#X obj 441 325 spigot;
#X obj 546 232 t b f b;
#X msg 610 281 1;
#X obj 472 396 *;
#X msg 472 425 pressure \$1;
#X connect 0 0 9 0;
#X connect 2 0 10 0;
#X connect 3 0 4 0;
#X connect 4 0 2 0;
#X connect 5 0 3 0;
#X connect 5 1 2 1;
#X connect 5 2 6 0;
#X connect 6 0 4 1;
#X connect 7 0 8 0;
#X connect 7 0 11 0;
#X connect 8 0 4 1;
#X connect 9 0 3 0;
#X connect 9 1 5 0;
#X connect 9 2 12 0;
#X connect 10 0 1 0;
#X connect 11 0 1 0;
#X connect 12 0 7 0;
#X connect 12 1 13 0;
#X connect 12 2 15 0;
#X connect 13 0 14 0;
#X connect 14 0 17 0;
#X connect 15 0 13 0;
#X connect 15 1 17 1;
#X connect 15 2 16 0;
#X connect 16 0 14 1;
#X connect 17 0 18 0;
#X connect 18 0 1 0;
