#N canvas 0 50 1079 457 16;
#X obj 101 131 inlet;
#X obj 101 233 outlet;
#X obj 215 133 inlet;
#X obj 216 235 outlet;
#X obj 101 172 / 3968;
#X obj 216 172 / 2240;
#X obj 101 200 * 1920;
#X obj 216 200 * 1080;
#X text 122 90 X;
#X text 236 91 Y;
#X text 64 15 You have to adjust those parameters according to your
configuration;
#X obj 278 380 outlet;
#X obj 312 128 inlet;
#X obj 325 180 cnv 15 20 20 empty empty empty 20 12 0 14 -257985 -66577
0;
#X obj 325 220 cnv 15 20 20 empty empty empty 20 12 0 14 -257985 -66577
0;
#X obj 655 290 cnv 15 20 20 empty empty empty 20 12 0 14 -257985 -66577
0;
#X text 321 213 <- fullscreen size;
#X text 323 172 <- touchscreen device resolution;
#X text 655 290 <- path to the TouchscreenSend program and address
of the touchscreen device on your system, f 39;
#X msg 277 287 /home/jyg/multitouch/TouchscreenSend /dev/input/event17
, f 37;
#X connect 0 0 4 0;
#X connect 2 0 5 0;
#X connect 4 0 6 0;
#X connect 5 0 7 0;
#X connect 6 0 1 0;
#X connect 7 0 3 0;
#X connect 12 0 19 0;
#X connect 19 0 11 0;
