#N canvas 466 58 1242 929 16;
#X obj 518 413 v MULTITOUCH.SLOT.ID;
#X msg 594 553 symbol \$1-slot;
#X obj 521 463 select 0;
#X obj 569 676 s;
#X obj 196 396 unpack f f;
#X msg 565 627 send_to \$1;
#X obj 193 673 +;
#X obj 626 66 inlet;
#X obj 270 271 loadbang;
#X obj 270 329 select x y;
#X obj 196 425 *;
#X obj 293 431 *;
#X obj 196 454 +;
#X msg 270 358 1;
#X msg 324 363 -1;
#X obj 513 305 spigot 1;
#X msg 592 275 0;
#X obj 237 220 route list no_mouse remove;
#X obj 565 600 list append \$0-from_slot;
#X obj 242 166 r \$0-from_slot;
#X msg 413 261 1;
#X obj 589 507 t b f b;
#X obj 513 367 t b;
#X obj 673 309 -;
#X obj 193 838 outlet;
#X obj 791 421 == 0;
#X obj 715 469 spigot 1;
#X obj 195 332 spigot;
#X obj 918 106 inlet set;
#X obj 193 702 min 127;
#X obj 193 731 max 0;
#X obj 191 773 t f f f;
#X text 434 550 register callback, f 9;
#X obj 647 268 t f f;
#X obj 244 474 r \$3;
#X obj 599 104 route float list;
#X obj 645 170 unpack f f;
#X obj 714 348 -;
#X msg 599 133 \$1 0;
#X obj 193 512 / 127;
#X obj 193 544 * 127;
#X text 207 138 callback;
#X obj 600 231 t b f;
#X obj 255 545 r ZOOM;
#X obj 193 573 / 1;
#X obj 193 624 * 0.5;
#X obj 338 614 r \$1-spdrt;
#X obj 270 300 list append \$2;
#X text 337 667 speed_ratio(%);
#X obj 338 643 / 100;
#X connect 0 0 2 0;
#X connect 1 0 3 1;
#X connect 2 1 21 0;
#X connect 4 0 10 0;
#X connect 4 1 11 0;
#X connect 5 0 3 0;
#X connect 6 0 29 0;
#X connect 7 0 35 0;
#X connect 8 0 47 0;
#X connect 9 0 13 0;
#X connect 9 1 14 0;
#X connect 10 0 12 0;
#X connect 11 0 12 1;
#X connect 12 0 39 0;
#X connect 13 0 10 1;
#X connect 14 0 11 1;
#X connect 15 0 22 0;
#X connect 16 0 15 1;
#X connect 16 0 0 0;
#X connect 17 0 27 0;
#X connect 17 1 25 0;
#X connect 17 1 27 1;
#X connect 17 2 20 0;
#X connect 18 0 5 0;
#X connect 19 0 17 0;
#X connect 20 0 15 1;
#X connect 21 0 18 0;
#X connect 21 1 1 0;
#X connect 21 2 16 0;
#X connect 22 0 0 0;
#X connect 23 0 37 0;
#X connect 25 0 26 1;
#X connect 26 0 45 0;
#X connect 27 0 4 0;
#X connect 28 0 6 1;
#X connect 29 0 30 0;
#X connect 30 0 31 0;
#X connect 31 0 24 0;
#X connect 31 1 6 1;
#X connect 33 0 23 1;
#X connect 33 1 23 0;
#X connect 34 0 39 1;
#X connect 35 0 38 0;
#X connect 35 1 36 0;
#X connect 36 0 42 0;
#X connect 36 1 37 1;
#X connect 37 0 26 0;
#X connect 38 0 36 0;
#X connect 39 0 40 0;
#X connect 40 0 44 0;
#X connect 42 0 15 0;
#X connect 42 1 33 0;
#X connect 43 0 44 1;
#X connect 44 0 45 0;
#X connect 45 0 6 0;
#X connect 46 0 49 0;
#X connect 47 0 9 0;
#X connect 49 0 45 1;
#X coords 0 929 1 928 85 60 0;
