#N canvas 961 58 958 1018 12;
#N canvas 320 294 811 799 multitouch.daemon 1;
#N canvas 0 0 450 300 \$0-dynamic_stuff 0;
#X restore 489 159 pd \$0-dynamic_stuff;
#X obj 45 337 s pd-\$0-dynamic_stuff;
#X obj 50 95 v MULTITOUCH.DAEMON;
#X obj 50 120 select 0;
#X msg 35 193 1;
#X obj 48 150 t b b;
#X obj 35 32 loadbang;
#X obj 47 63 metro 2000;
#X msg 283 219 clear \, menusave;
#X obj 179 152 v MULTITOUCH.DAEMON;
#X obj 31 220 s MULTITOUCH.DAEMON;
#X msg 44 312 clear \, obj 10 10 multitouch.daemon3 \, loadbang;
#X connect 2 0 3 0;
#X connect 3 0 5 0;
#X connect 4 0 10 0;
#X connect 5 0 4 0;
#X connect 5 1 11 0;
#X connect 6 0 7 0;
#X connect 7 0 2 0;
#X connect 8 0 1 0;
#X connect 11 0 1 0;
#X restore 46 170 pd multitouch.daemon;
#X obj 267 134 list prepend \$0-window;
#X obj 268 215 s MULTITOUCH.HANDLER;
#X obj 255 360 r \$0-window;
#X obj 404 491 iemguts/sendcanvas 1;
#X obj 265 29 iemguts/receivecanvas 1;
#X obj 351 659 s;
#X msg 367 526 bang;
#X obj 399 551 loadbang;
#X msg 368 621 symbol MULTITOUCH.MODE2.\$1;
#X obj 255 461 route MULTITOUCH.MODE2;
#X obj 371 587 iemguts/canvasdollarzero 1;
#X obj 250 499 unpack f f f;
#X obj 249 559 pack f f f;
#X obj 267 61 route mouse zoom;
#X obj 255 411 spigot 1;
#X obj 449 363 inlet;
#X msg 469 134 zoom \$1;
#X obj 267 98 t l b;
#X obj 365 99 f 1;
#X obj 611 65 iemguts/propertybang;
#X obj 612 93 s MULTITOUCH.SETTINGS.OPEN;
#X text 630 115 open properties dialog;
#X connect 1 0 2 0;
#X connect 3 0 15 0;
#X connect 5 0 14 0;
#X connect 7 0 11 0;
#X connect 8 0 11 0;
#X connect 9 0 6 1;
#X connect 10 0 12 0;
#X connect 10 1 4 0;
#X connect 11 0 9 0;
#X connect 12 0 13 0;
#X connect 12 1 13 1;
#X connect 12 2 13 2;
#X connect 13 0 6 0;
#X connect 14 0 18 0;
#X connect 14 1 19 1;
#X connect 15 0 10 0;
#X connect 16 0 15 1;
#X connect 17 0 2 0;
#X connect 18 0 1 0;
#X connect 18 1 19 0;
#X connect 19 0 17 0;
#X connect 20 0 21 0;
#X coords 0 1018 1 1017 85 60 0;
