#N canvas 961 58 958 1018 12;
#X obj 90 148 iemguts/receivecanvas 1;
#X obj 357 85 r MULTITOUCH_OSC;
#X obj 366 243 route 330;
#X obj 92 399 spigot;
#X msg 330 297 1;
#X obj 92 432 route mouse;
#X msg 183 386 0;
#X obj 94 598 -;
#X obj 163 600 -;
#X obj 95 566 unpack f f;
#X obj 93 650 s OFFSET_X;
#X obj 171 649 s OFFSET_Y;
#X obj 413 304 route 0 1;
#X text 791 356 47 ABS_MT_SLOT;
#X text 785 380 53 ABS_MT_POSITION_X;
#X text 785 410 54 ABS_MT_POSITION_Y;
#X text 784 446 57 ABS_MT_TRACKING_ID;
#X obj 368 198 route key abs sync;
#X obj 363 269 select 0 1;
#X obj 596 659 r MULTITOUCH_CLICKS;
#X obj 597 751 iemguts/sendcanvas 1;
#X msg 480 593 1;
#X msg 507 550 0;
#X obj 601 147 inlet;
#X obj 92 290 spigot 1;
#N canvas 320 294 811 799 multitouch.daemon 0;
#N canvas 0 50 450 300 \$0-dynamic_stuff 0;
#X obj 10 10 multitouch.daemon2;
#X restore 489 159 pd \$0-dynamic_stuff;
#X obj 45 337 s pd-\$0-dynamic_stuff;
#X obj 50 95 v MULTITOUCH.DAEMON;
#X obj 50 120 select 0;
#X msg 84 192 1;
#X obj 48 150 t b b;
#X msg 44 312 clear \, obj 10 10 multitouch.daemon2 \, loadbang;
#X obj 35 32 loadbang;
#X obj 47 63 metro 2000;
#X msg 283 219 clear \, menusave;
#X obj 179 152 v MULTITOUCH.DAEMON;
#X obj 80 219 s MULTITOUCH.DAEMON;
#X connect 2 0 3 0;
#X connect 3 0 5 0;
#X connect 4 0 11 0;
#X connect 5 0 6 0;
#X connect 5 1 4 0;
#X connect 6 0 1 0;
#X connect 7 0 8 0;
#X connect 8 0 2 0;
#X connect 9 0 1 0;
#X restore 756 179 pd multitouch.daemon;
#X obj 598 726 spigot 1;
#X obj 598 701 spigot;
#X obj 409 337 multitouch.settings2;
#X obj 758 230 iemguts/propertybang;
#X obj 759 258 s MULTITOUCH.SETTINGS.OPEN;
#X obj 124 860 +;
#X obj 158 878 +;
#X obj 318 532 r MULTITOUCH.RAW;
#X msg 406 824 \$1 remove;
#X obj 321 638 spigot;
#X obj 319 669 list split 1;
#X obj 321 719 list prepend;
#X obj 321 744 list trim;
#X obj 505 812 list prepend;
#X obj 319 694 t f f;
#X text 511 791 other;
#X obj 505 837 list trim;
#X obj 132 529 s MULTITOUCH.ACTIVE;
#X obj 129 499 f \$0;
#X obj 362 561 r MULTITOUCH.ACTIVE;
#X obj 362 586 == \$0;
#X obj 320 612 spigot;
#X obj 175 322 route zoom;
#X obj 121 913 / 1;
#X obj 159 913 / 1;
#X obj 201 879 t f f;
#X obj 135 711 s ZOOM;
#X obj 134 683 f 1;
#X text 777 280 open properties dialog;
#X obj 97 258 t a a, f 12;
#X obj 165 347 t a a;
#X text 197 459 on last touchrelease \, listen to mouse_events to calibrate
(offset & zoom);
#X text 9 624 current ofset & zoom, f 10;
#X obj 94 464 t l b b b b;
#X text 11 669 & active window, f 10;
#X text 756 660 simulated mouse events;
#X text 226 942 \$3 = slotID;
#X text 251 885 zoom;
#X text 447 229 first touch / last touchup event (key 330) on touchscreen
, f 19;
#X text 401 368 units conversion (touch distance/pixels);
#X msg 802 798 bang;
#X obj 880 797 loadbang;
#X obj 462 919 s MULTITOUCH.COOKED;
#X obj 424 885 t a a;
#X msg 806 858 symbol MULTITOUCH.MODE2.\$1;
#X obj 396 982 s;
#N canvas 0 57 1920 1023 multitouch_mode2 0;
#X msg 15 66 \$2 \$1;
#X obj 15 37 list split 2;
#X obj 23 371 list append;
#X obj 334 140 tabread MULTITOUCH.SLOT.STATUS;
#X obj 385 218 tabwrite MULTITOUCH.SLOT.STATUS;
#X msg 400 192 0;
#X obj 542 50 t f f b f;
#X obj 603 164 s;
#X msg 627 123 symbol \$1-channel;
#X msg 565 136 remove;
#X obj 11 163 tabread MULTITOUCH.SLOT.STATUS;
#X obj 9 201 select 0;
#X obj 21 399 list append 0;
#X obj 16 132 t f f, f 15;
#X obj 645 80 tabread MULTITOUCH.SLOT.STATUS;
#X obj 16 13 inlet;
#X obj 300 283 list split 2;
#X obj 383 372 tabread MULTITOUCH.SLOT.STATUS;
#X obj 402 405 select 0;
#X obj 299 340 unpack s f;
#X msg 394 482 symbol \$1-channel;
#X obj 304 560 list append;
#X obj 304 585 list trim;
#X obj 298 674 s;
#X obj 30 432 outlet;
#X obj 301 241 list append;
#X obj 15 91 route add remove;
#X obj 376 677 list prepend;
#X obj 304 480 spigot;
#X obj 335 412 != 0;
#X connect 0 0 26 0;
#X connect 1 0 0 0;
#X connect 1 1 2 1;
#X connect 1 1 25 1;
#X connect 2 0 12 0;
#X connect 3 0 5 0;
#X connect 5 0 4 0;
#X connect 6 0 3 0;
#X connect 6 1 4 1;
#X connect 6 2 9 0;
#X connect 6 3 14 0;
#X connect 8 0 7 1;
#X connect 9 0 7 0;
#X connect 10 0 11 0;
#X connect 11 0 2 0;
#X connect 12 0 24 0;
#X connect 13 0 10 0;
#X connect 13 1 12 1;
#X connect 14 0 8 0;
#X connect 15 0 1 0;
#X connect 16 0 19 0;
#X connect 16 1 21 1;
#X connect 17 0 18 0;
#X connect 17 0 29 0;
#X connect 18 1 20 0;
#X connect 19 0 28 0;
#X connect 19 1 17 0;
#X connect 20 0 23 1;
#X connect 20 0 27 1;
#X connect 21 0 22 0;
#X connect 22 0 23 0;
#X connect 22 0 27 0;
#X connect 25 0 16 0;
#X connect 26 0 13 0;
#X connect 26 1 6 0;
#X connect 26 2 25 0;
#X connect 28 0 21 0;
#X connect 29 0 28 1;
#X restore 395 955 pd multitouch_mode2;
#X text 602 921 <- (to be deprecated);
#X symbolatom 807 922 10 0 0 0 - - -;
#X obj 801 830 iemguts/canvasdollarzero 1;
#X obj 322 769 route add update remove;
#X obj 122 822 unpack f f f s;
#X obj 120 936 pack f f f s;
#X msg 119 962 \$3 \$4 \$1 \$2;
#X obj 222 795 list append add;
#X obj 255 824 list append update;
#X connect 0 0 55 0;
#X connect 1 0 17 0;
#X connect 2 0 18 0;
#X connect 3 0 5 0;
#X connect 4 0 3 1;
#X connect 5 0 59 0;
#X connect 6 0 3 1;
#X connect 7 0 10 0;
#X connect 7 0 31 1;
#X connect 8 0 11 0;
#X connect 8 0 32 1;
#X connect 9 0 7 0;
#X connect 9 1 8 0;
#X connect 12 0 28 0;
#X connect 12 1 28 1;
#X connect 17 0 2 0;
#X connect 17 1 12 0;
#X connect 18 0 4 0;
#X connect 18 0 22 0;
#X connect 19 0 27 0;
#X connect 21 0 27 1;
#X connect 21 0 35 1;
#X connect 22 0 27 1;
#X connect 23 0 24 1;
#X connect 23 0 26 1;
#X connect 24 0 3 0;
#X connect 26 0 20 0;
#X connect 27 0 26 0;
#X connect 28 0 7 1;
#X connect 28 1 8 1;
#X connect 29 0 30 0;
#X connect 31 0 49 0;
#X connect 32 0 50 0;
#X connect 33 0 47 0;
#X connect 34 0 69 0;
#X connect 35 0 36 0;
#X connect 36 0 40 0;
#X connect 36 1 37 1;
#X connect 37 0 38 0;
#X connect 38 0 76 0;
#X connect 39 0 42 0;
#X connect 40 0 37 0;
#X connect 40 1 39 1;
#X connect 42 0 69 0;
#X connect 44 0 43 0;
#X connect 45 0 46 0;
#X connect 46 0 47 1;
#X connect 47 0 35 0;
#X connect 48 0 56 0;
#X connect 49 0 78 0;
#X connect 50 0 78 1;
#X connect 51 0 49 1;
#X connect 51 1 50 1;
#X connect 53 0 52 0;
#X connect 55 0 24 0;
#X connect 55 1 48 0;
#X connect 56 0 53 1;
#X connect 56 1 51 0;
#X connect 59 0 9 0;
#X connect 59 1 53 0;
#X connect 59 2 44 0;
#X connect 59 3 21 0;
#X connect 59 4 6 0;
#X connect 66 0 75 0;
#X connect 67 0 75 0;
#X connect 69 0 72 0;
#X connect 69 1 68 0;
#X connect 70 0 71 1;
#X connect 72 0 71 0;
#X connect 75 0 70 0;
#X connect 75 0 74 0;
#X connect 76 0 80 0;
#X connect 76 1 81 0;
#X connect 76 2 34 0;
#X connect 76 3 39 0;
#X connect 77 0 31 0;
#X connect 77 1 32 0;
#X connect 77 2 78 2;
#X connect 77 3 78 3;
#X connect 78 0 79 0;
#X connect 79 0 69 0;
#X connect 80 0 77 0;
#X connect 81 0 77 0;
#X coords 0 1018 1 1017 85 60 0;
