#N canvas 3 89 1079 606 16;
#X obj 540 111 inlet;
#X obj 540 504 outlet;
#X obj 690 111 inlet;
#X obj 689 506 outlet;
#X text 562 70 X;
#X text 717 61 Y;
#X obj 839 505 outlet;
#X obj 840 111 inlet;
#X obj 563 204 cnv 15 250 40 empty empty empty 20 12 0 14 -257985 -66577
0;
#X obj 617 315 hcs/screensize;
#X obj 617 285 loadbang;
#X obj 540 141 t f b;
#X obj 540 252 /;
#X obj 690 252 /;
#X obj 690 142 t f b;
#X floatatom 242 273 5 0 0 0 - - #0-set-device-number, f 5;
#X text 55 198 2) in the pd console \, look for your touchscreen device
number \, and report it here ->, f 20;
#X obj 595 174 r \$0-xrange;
#X obj 748 173 r \$0-yrange;
#X obj 239 158 bng 30 250 50 0 \$0-get-devices-list empty devices 33
7 0 14 -262144 -1 -1;
#X obj 241 314 bng 30 250 50 0 \$0-ok empty OK 8 13 0 14 -4034 -1 -1
;
#X obj 539 380 t f b;
#X obj 540 468 *;
#X obj 689 380 t f b;
#X obj 689 468 *;
#X msg 617 347 set \$1;
#X msg 747 348 set \$1;
#X obj 562 409 cnv 15 250 40 empty empty empty 20 12 0 14 -260097 -66577
0;
#X text 829 208 <- touch input device resolution, f 19;
#X text 850 413 <- fullscreen resolution, f 16;
#X text 54 155 1) click here ->;
#X text 57 314 3) click OK ->;
#X text 53 451 ... and the touchscreen input device resolution may
have changed., f 31;
#X obj 358 390 r \$0-success;
#X text 56 349 If success \, you should get the name of your touchscreen
device here --->, f 27;
#X obj 847 18 namecanvas \$0-this;
#N canvas 256 284 880 632 stuff 0;
#X obj 83 253 outlet;
#X obj 107 150 hidio;
#X obj 209 203 route absolute;
#X msg 209 261 set \$2;
#X msg 286 262 set \$2;
#X obj 134 11 inlet;
#X obj 209 290 s \$0-xrange;
#X obj 286 337 s \$0-yrange;
#X obj 314 32 r \$0-get-devices-list;
#X msg 314 61 devices;
#X msg 429 185 set open \$1 \, addcomma \, add2 1;
#X obj 422 141 t b f;
#X obj 490 270 delay 100;
#X obj 490 299 t b b;
#X obj 490 328 delay 400;
#X msg 490 357 info;
#X obj 480 111 f;
#X obj 448 75 r \$0-ok;
#X obj 551 80 r \$0-set-device-number;
#X obj 209 232 route x y product;
#X obj 368 412 list prepend set;
#X obj 368 441 list trim;
#X obj 297 384 t b a;
#X obj 209 174 route range product;
#X msg 254 496 menusave;
#X obj 261 465 delay 100;
#X obj 254 525 s \$0-this;
#X obj 368 470 s \$0-success;
#X obj 666 398 route blank;
#X msg 654 509 vis 1;
#X obj 666 427 t b;
#X obj 666 460 delay 200;
#X obj 135 47 t b b;
#X msg 134 89, f 12;
#X msg 666 369 blank;
#X msg 46 386 reset;
#X msg 46 444 set;
#X msg 100 452 set blank;
#X text 39 364 reset module;
#X obj 42 415 t b b b;
#X obj 229 18 inlet reset;
#X obj 13 42 route open;
#X msg 13 71 vis 1;
#X obj 13 100 s \$0-this;
#X connect 1 0 0 0;
#X connect 1 1 23 0;
#X connect 2 0 19 0;
#X connect 3 0 6 0;
#X connect 4 0 7 0;
#X connect 5 0 41 0;
#X connect 8 0 9 0;
#X connect 9 0 1 0;
#X connect 10 0 33 0;
#X connect 11 0 12 0;
#X connect 11 1 10 0;
#X connect 12 0 13 0;
#X connect 13 0 14 0;
#X connect 13 1 33 0;
#X connect 14 0 15 0;
#X connect 15 0 1 0;
#X connect 16 0 11 0;
#X connect 17 0 16 0;
#X connect 18 0 16 1;
#X connect 19 0 3 0;
#X connect 19 1 4 0;
#X connect 20 0 21 0;
#X connect 21 0 27 0;
#X connect 21 0 34 0;
#X connect 22 0 25 0;
#X connect 22 1 20 0;
#X connect 23 0 2 0;
#X connect 23 1 22 0;
#X connect 24 0 26 0;
#X connect 25 0 24 0;
#X connect 28 0 30 0;
#X connect 29 0 26 0;
#X connect 30 0 31 0;
#X connect 31 0 29 0;
#X connect 32 0 33 0;
#X connect 32 1 34 0;
#X connect 33 0 1 0;
#X connect 34 0 28 0;
#X connect 35 0 39 0;
#X connect 36 0 33 0;
#X connect 36 0 27 0;
#X connect 37 0 34 0;
#X connect 39 0 36 0;
#X connect 39 1 37 0;
#X connect 39 2 25 0;
#X connect 40 0 35 0;
#X connect 41 0 42 0;
#X connect 41 1 32 0;
#X connect 42 0 43 0;
#X restore 840 301 pd stuff;
#X text 82 11 !!! WELCOME IN PD-MULTITOUCH !!!;
#X text 61 48 Before you can use multitouch mode in puredata \, you
have first to adjust this patch according to your configuration, f
38;
#X text 40 533 WARNING : befor closing this patch \, please check that
the device and screen resolutions are correct (yellow and orange rectangles)
, f 47;
#X msg 107 412;
#X msg 585 213 3968;
#X msg 735 210 2240;
#X msg 583 418 1920;
#X msg 733 417 1080;
#X obj 931 285 bng 20 250 50 0 empty empty reset 35 7 0 12 -262144
-1 -1;
#X connect 0 0 11 0;
#X connect 2 0 14 0;
#X connect 7 0 36 0;
#X connect 9 0 25 0;
#X connect 9 1 26 0;
#X connect 10 0 9 0;
#X connect 11 0 12 0;
#X connect 11 1 41 0;
#X connect 12 0 21 0;
#X connect 13 0 23 0;
#X connect 14 0 13 0;
#X connect 14 1 42 0;
#X connect 17 0 41 0;
#X connect 18 0 42 0;
#X connect 21 0 22 0;
#X connect 21 1 43 0;
#X connect 22 0 1 0;
#X connect 23 0 24 0;
#X connect 23 1 44 0;
#X connect 24 0 3 0;
#X connect 25 0 43 0;
#X connect 26 0 44 0;
#X connect 33 0 40 0;
#X connect 36 0 6 0;
#X connect 41 0 12 1;
#X connect 42 0 13 1;
#X connect 43 0 22 1;
#X connect 44 0 24 1;
#X connect 45 0 36 1;
