#N canvas 664 87 1053 737 12;
#X obj 551 21 iemguts/closebang;
#X obj 140 174 route 47 57 53 54;
#X msg 116 363 MT_TRACKING_ID \$1;
#X msg 194 402 MT_POSITION_X \$1;
#X msg 329 400 MT_POSITION_Y \$1;
#X obj 103 549 list prepend 0;
#X obj 161 30 route abs key;
#X obj 206 57 route 330;
#X obj 206 82 select 0;
#X obj 207 130 v TRACKED.SLOTS;
#X msg 207 106 0;
#X msg 59 245 \$1 slot;
#X obj 553 102 v MULTITOUCH.DAEMON;
#X msg 552 76 0;
#X obj 298 165 loadbang;
#X msg 112 587 vis 0 1;
#X obj 211 248 multitouch.settings2;
#X obj 163 4 r MULTITOUCH_OSC;
#X obj 301 192 r MULTITOUCH.SETTINGS.OPEN;
#X msg 301 217 open;
#X obj 480 256 hidio;
#X obj 89 701 s MULTITOUCH.RAW;
#X obj 163 441 route 48 49;
#X msg 157 474 MT_TOUCH_LENGTH \$1;
#X msg 159 504 MT_TOUCH_WIDTH \$1;
#X obj 550 49 t b;
#X obj 770 49 table MULTITOUCH.SLOT.STATUS 10;
#N canvas 0 50 891 855 touch_events_decoding 0;
#X obj 83 20 inlet;
#X msg 166 220 47 \$2;
#X msg 216 220 48 \$2;
#X msg 266 220 49 \$2;
#X msg 316 220 53 \$2;
#X msg 366 220 54 \$2;
#X msg 416 220 57 \$2;
#X msg 466 220 60 \$2;
#X msg 516 220 61 \$2;
#X obj 132 116 route x y;
#X obj 165 164 route abs_47 abs_48 abs_49 abs_53 abs_54 abs_57 abs_60
abs_61 abs_52;
#X msg 566 220 52 \$2;
#X msg 70 177 0 \$2;
#X msg 120 177 1 \$2;
#X obj 176 430 list prepend abs;
#X obj 176 455 list trim;
#X obj 389 93 route button_10;
#X msg 390 121 key 330 \$2;
#X obj 84 48 route msc absolute button;
#X text 585 328 47 ABS_MT_SLOT;
#X text 579 352 53 ABS_MT_POSITION_X;
#X text 579 382 54 ABS_MT_POSITION_Y;
#X text 578 418 57 ABS_MT_TRACKING_ID;
#X obj 172 510 outlet;
#X connect 0 0 18 0;
#X connect 1 0 14 0;
#X connect 2 0 14 0;
#X connect 3 0 14 0;
#X connect 4 0 14 0;
#X connect 5 0 14 0;
#X connect 6 0 14 0;
#X connect 7 0 14 0;
#X connect 8 0 14 0;
#X connect 9 0 12 0;
#X connect 9 1 13 0;
#X connect 9 2 10 0;
#X connect 10 0 1 0;
#X connect 10 1 2 0;
#X connect 10 2 3 0;
#X connect 10 3 4 0;
#X connect 10 4 5 0;
#X connect 10 5 6 0;
#X connect 10 6 7 0;
#X connect 10 7 8 0;
#X connect 10 8 11 0;
#X connect 11 0 14 0;
#X connect 12 0 14 0;
#X connect 13 0 14 0;
#X connect 14 0 15 0;
#X connect 15 0 23 0;
#X connect 16 0 17 0;
#X connect 17 0 23 0;
#X connect 18 1 9 0;
#X connect 18 2 16 0;
#X restore 479 293 pd touch_events_decoding;
#X obj 479 321 s MULTITOUCH_OSC;
#X text 208 271 converts touchscale to screenscale;
#X obj 78 667 clone multitouch.tracker 10;
#X obj 91 629 t a a;
#X obj 141 218 t f f;
#X msg 189 589 vis 1 1;
#X connect 0 0 25 0;
#X connect 1 0 32 0;
#X connect 1 1 2 0;
#X connect 1 2 16 0;
#X connect 1 3 16 1;
#X connect 1 4 22 0;
#X connect 2 0 5 0;
#X connect 3 0 5 0;
#X connect 4 0 5 0;
#X connect 5 0 31 0;
#X connect 6 0 1 0;
#X connect 6 1 7 0;
#X connect 7 0 8 0;
#X connect 8 0 10 0;
#X connect 10 0 9 0;
#X connect 11 0 31 0;
#X connect 13 0 12 0;
#X connect 14 0 16 2;
#X connect 15 0 31 0;
#X connect 16 0 3 0;
#X connect 16 1 4 0;
#X connect 16 2 20 0;
#X connect 17 0 6 0;
#X connect 18 0 19 0;
#X connect 19 0 16 2;
#X connect 20 0 27 0;
#X connect 20 1 16 3;
#X connect 22 0 23 0;
#X connect 22 1 24 0;
#X connect 23 0 5 0;
#X connect 24 0 5 0;
#X connect 25 0 13 0;
#X connect 27 0 28 0;
#X connect 30 0 21 0;
#X connect 31 0 30 0;
#X connect 32 0 11 0;
#X connect 32 1 5 1;
#X connect 33 0 30 0;
