#N canvas 292 339 1053 737 12;
#X obj 35 39 oscparse;
#X obj 35 16 netreceive -u -b 7000;
#X obj 32 65 list trim;
#X obj 33 96 s MULTITOUCH_OSC;
#X obj 148 206 route 47 57 53 54;
#X msg 81 311 MT_TRACKING_ID \$1;
#X msg 206 317 MT_POSITION_X \$1;
#X msg 281 352 MT_POSITION_Y \$1;
#X obj 142 511 list split 1;
#X obj 179 548 list trim;
#X obj 164 384 list prepend 0;
#X obj 152 586 s MULTITOUCH_CLICKS;
#X obj 165 109 r MULTITOUCH_OSC;
#X obj 371 296 ggee/shell;
#X msg 434 221 killall TouchscreenSend;
#X obj 505 149 iemguts/closebang;
#X obj 638 233 s MULTITOUCH.DAEMON.REFRESH;
#X obj 165 134 route abs key;
#X obj 324 143 route 330;
#X obj 324 168 select 0;
#X obj 537 361 v TRACKED.SLOTS;
#X msg 540 320 0;
#X msg 59 245 \$1 slot;
#X msg 430 427 vis 1 1;
#X obj 164 462 clone multitouch.slot2 10;
#X obj 572 177 t b b b;
#X obj 670 192 v MULTITOUCH.DAEMON;
#X msg 673 165 0;
#X obj 211 248 multitouch.settings;
#X obj 313 209 loadbang;
#X connect 0 0 2 0;
#X connect 1 0 0 0;
#X connect 2 0 3 0;
#X connect 4 0 10 1;
#X connect 4 0 22 0;
#X connect 4 1 5 0;
#X connect 4 2 28 0;
#X connect 4 3 28 1;
#X connect 5 0 10 0;
#X connect 6 0 10 0;
#X connect 7 0 10 0;
#X connect 8 1 9 0;
#X connect 9 0 11 0;
#X connect 10 0 24 0;
#X connect 12 0 17 0;
#X connect 14 0 13 0;
#X connect 15 0 25 0;
#X connect 17 0 4 0;
#X connect 17 1 18 0;
#X connect 18 0 19 0;
#X connect 19 0 21 0;
#X connect 21 0 20 0;
#X connect 22 0 24 0;
#X connect 23 0 24 0;
#X connect 24 0 8 0;
#X connect 25 0 14 0;
#X connect 25 1 16 0;
#X connect 25 2 27 0;
#X connect 27 0 26 0;
#X connect 28 0 6 0;
#X connect 28 1 7 0;
#X connect 28 2 13 0;
#X connect 29 0 28 2;
