#N canvas 604 124 998 899 12;
#X obj 92 130 iemguts/receivecanvas 1;
#X obj 321 211 r MULTITOUCH_OSC;
#X obj 316 291 route 330;
#X obj 92 316 spigot;
#X msg 251 347 1;
#X obj 90 353 route mouse;
#X obj 120 391 t l b;
#X msg 213 301 0;
#X obj 211 497 -;
#X obj 279 501 -;
#X obj 201 461 unpack f f;
#X obj 191 529 s OFFSET_X;
#X obj 282 532 s OFFSET_Y;
#X obj 379 350 route 0 1;
#X text 795 328 47 ABS_MT_SLOT;
#X text 789 352 53 ABS_MT_POSITION_X;
#X text 789 382 54 ABS_MT_POSITION_Y;
#X text 788 418 57 ABS_MT_TRACKING_ID;
#X obj 322 263 route key abs sync;
#X obj 316 314 select 0 1;
#X obj 562 414 r MULTITOUCH_CLICKS;
#X obj 559 541 iemguts/sendcanvas 1;
#X msg 186 393 1;
#X msg 507 431 0;
#X obj 590 231 inlet;
#X obj 92 171 spigot 1;
#N canvas 508 201 1920 1023 multitouch.daemon 1;
#N canvas 0 50 450 300 \$0-dynamic_stuff 1;
#X restore 489 159 pd \$0-dynamic_stuff;
#X obj 45 337 s pd-\$0-dynamic_stuff;
#X obj 50 95 v MULTITOUCH.DAEMON;
#X obj 50 120 select 0;
#X msg 84 192 1;
#X obj 80 219 v MULTITOUCH.DAEMON;
#X obj 48 150 t b b;
#X msg 44 312 clear \, obj 10 10 multitouch.daemon2 \, loadbang;
#X obj 35 32 loadbang;
#X obj 47 63 metro 2000;
#X msg 283 219 clear \, menusave;
#X connect 2 0 3 0;
#X connect 3 0 6 0;
#X connect 4 0 5 0;
#X connect 6 0 7 0;
#X connect 6 1 4 0;
#X connect 7 0 1 0;
#X connect 8 0 9 0;
#X connect 9 0 2 0;
#X connect 10 0 1 0;
#X restore 416 71 pd multitouch.daemon;
#X obj 560 516 spigot 1;
#X obj 560 491 spigot;
#X obj 331 396 multitouch.settings2;
#X obj 642 109 iemguts/propertybang;
#X obj 640 147 s MULTITOUCH.SETTINGS.OPEN;
#X obj 433 784 +;
#X obj 467 782 +;
#X obj 412 508 r MULTITOUCH.RAW;
#X obj 363 714 route remove update;
#X obj 424 745 unpack f f f;
#X obj 419 862 pack f f f;
#X msg 202 769 \$1 remove;
#X obj 413 559 spigot;
#X obj 411 590 list split 1;
#X obj 417 655 list prepend;
#X obj 417 680 list trim;
#X msg 389 893 \$3 update \$1 \$2;
#X obj 548 758 list prepend;
#X obj 411 615 t f f;
#X text 554 737 other;
#X obj 548 783 list trim;
#X obj 755 606 s MULTITOUCH.ACTIVE;
#X obj 756 571 f \$0;
#X obj 748 658 r MULTITOUCH.ACTIVE;
#X obj 748 683 == \$0;
#X obj 412 533 spigot;
#X obj 165 857 s MULTITOUCH.COOKED;
#X obj 127 232 route zoom;
#X obj 403 834 / 1;
#X obj 468 830 / 1;
#X obj 337 779 t f f;
#X obj 158 605 s ZOOM;
#X obj 134 564 f 1;
#X connect 0 0 25 0;
#X connect 0 0 54 0;
#X connect 1 0 18 0;
#X connect 2 0 19 0;
#X connect 3 0 5 0;
#X connect 4 0 3 1;
#X connect 5 0 6 0;
#X connect 6 0 10 0;
#X connect 6 1 7 0;
#X connect 6 1 22 0;
#X connect 6 1 49 0;
#X connect 6 1 59 0;
#X connect 7 0 3 1;
#X connect 8 0 11 0;
#X connect 8 0 32 1;
#X connect 9 0 12 0;
#X connect 9 0 33 1;
#X connect 10 0 8 0;
#X connect 10 1 9 0;
#X connect 13 0 29 0;
#X connect 13 1 29 1;
#X connect 18 0 2 0;
#X connect 18 1 13 0;
#X connect 19 0 4 0;
#X connect 19 0 23 0;
#X connect 20 0 28 0;
#X connect 22 0 28 1;
#X connect 22 0 39 1;
#X connect 23 0 28 1;
#X connect 24 0 25 1;
#X connect 24 0 27 1;
#X connect 25 0 3 0;
#X connect 27 0 21 0;
#X connect 28 0 27 0;
#X connect 29 0 8 1;
#X connect 29 1 9 1;
#X connect 30 0 31 0;
#X connect 32 0 55 0;
#X connect 33 0 56 0;
#X connect 34 0 52 0;
#X connect 35 0 38 0;
#X connect 35 1 36 0;
#X connect 35 2 44 0;
#X connect 36 0 32 0;
#X connect 36 1 33 0;
#X connect 36 2 37 2;
#X connect 37 0 43 0;
#X connect 38 0 53 0;
#X connect 39 0 40 0;
#X connect 40 0 45 0;
#X connect 40 1 41 1;
#X connect 41 0 42 0;
#X connect 42 0 35 0;
#X connect 43 0 53 0;
#X connect 44 0 47 0;
#X connect 45 0 41 0;
#X connect 45 1 44 1;
#X connect 47 0 53 0;
#X connect 49 0 48 0;
#X connect 50 0 51 0;
#X connect 51 0 52 1;
#X connect 52 0 39 0;
#X connect 54 0 57 0;
#X connect 54 0 59 1;
#X connect 55 0 37 0;
#X connect 56 0 37 1;
#X connect 57 0 55 1;
#X connect 57 1 56 1;
#X connect 59 0 58 0;
#X coords 0 899 1 898 85 60 0;
