#N canvas 267 108 931 751 12;
#X obj 92 102 iemguts/receivecanvas 1;
#X obj 316 217 r MULTITOUCH_OSC;
#X obj 316 263 route 330;
#X obj 92 288 spigot;
#X msg 251 319 1;
#X obj 90 325 route mouse;
#X obj 120 363 t l b;
#X msg 213 273 0;
#X obj 211 469 -;
#X obj 279 473 -;
#X obj 201 433 unpack f f;
#X obj 191 501 s OFFSET_X;
#X obj 282 504 s OFFSET_Y;
#X obj 360 325 route 0 1;
#X text 795 300 47 ABS_MT_SLOT;
#X text 789 324 53 ABS_MT_POSITION_X;
#X text 789 354 54 ABS_MT_POSITION_Y;
#X text 788 390 57 ABS_MT_TRACKING_ID;
#X obj 322 235 route key abs sync;
#X obj 316 286 select 0 1;
#X obj 562 386 r MULTITOUCH_CLICKS;
#X obj 545 548 iemguts/sendcanvas 1;
#X msg 186 365 1;
#X msg 539 421 0;
#X obj 590 203 inlet;
#X obj 92 143 spigot 1;
#N canvas 0 57 1920 1023 multitouch.daemon 1;
#N canvas 0 50 450 300 \$0-dynamic_stuff 1;
#X restore 489 159 pd \$0-dynamic_stuff;
#X obj 45 337 s pd-\$0-dynamic_stuff;
#X obj 50 95 v MULTITOUCH.DAEMON;
#X obj 96 21 loadbang;
#X obj 250 32 r MULTITOUCH.DAEMON.REFRESH;
#X obj 50 120 select 0;
#X msg 45 312 clear \, obj 10 10 multitouch.daemon \, loadbang;
#X msg 84 192 1;
#X obj 80 219 v MULTITOUCH.DAEMON;
#X obj 48 150 t b b;
#X obj 250 57 delay 500;
#X connect 2 0 5 0;
#X connect 3 0 2 0;
#X connect 4 0 10 0;
#X connect 5 0 9 0;
#X connect 6 0 1 0;
#X connect 7 0 8 0;
#X connect 9 0 6 0;
#X connect 9 1 7 0;
#X connect 10 0 2 0;
#X restore 416 43 pd multitouch.daemon;
#X obj 560 488 spigot 1;
#X obj 560 463 spigot;
#X obj 331 368 multitouch.settings;
#X connect 0 0 25 0;
#X connect 1 0 18 0;
#X connect 2 0 19 0;
#X connect 3 0 5 0;
#X connect 4 0 3 1;
#X connect 5 0 6 0;
#X connect 6 0 10 0;
#X connect 6 1 7 0;
#X connect 6 1 22 0;
#X connect 7 0 3 1;
#X connect 8 0 11 0;
#X connect 9 0 12 0;
#X connect 10 0 8 0;
#X connect 10 1 9 0;
#X connect 13 0 29 0;
#X connect 13 1 29 1;
#X connect 18 0 2 0;
#X connect 18 1 13 0;
#X connect 19 0 4 0;
#X connect 19 0 23 0;
#X connect 20 0 28 0;
#X connect 22 0 28 1;
#X connect 23 0 28 1;
#X connect 24 0 25 1;
#X connect 24 0 27 1;
#X connect 25 0 3 0;
#X connect 27 0 21 0;
#X connect 28 0 27 0;
#X connect 29 0 8 1;
#X connect 29 1 9 1;
#X coords 0 751 1 750 85 60 0;
