#N canvas 862 233 1053 737 12;
#X obj 557 103 iemguts/closebang;
#X obj 148 206 route 47 57 53 54;
#X msg 130 290 MT_TRACKING_ID \$1;
#X msg 206 317 MT_POSITION_X \$1;
#X msg 333 331 MT_POSITION_Y \$1;
#X obj 92 359 list prepend 0;
#X obj 165 134 route abs key;
#X obj 406 33 route 330;
#X obj 406 58 select 0;
#X obj 405 132 v TRACKED.SLOTS;
#X msg 408 91 0;
#X msg 59 245 \$1 slot;
#X obj 50 414 clone multitouch.slot2 10;
#X obj 671 252 v MULTITOUCH.DAEMON;
#X msg 674 225 0;
#X obj 408 166 loadbang;
#X msg 288 359 vis 0 1;
#X obj 572 177 t b b b;
#X obj 211 248 multitouch.settings2;
#X obj 91 57 r MULTITOUCH_OSC;
#X obj 482 259 route msc;
#X obj 542 290 route absolute button;
#X msg 566 420 47 \$2;
#X msg 616 420 48 \$2;
#X msg 666 420 49 \$2;
#X msg 716 420 53 \$2;
#X msg 766 420 54 \$2;
#X msg 816 420 57 \$2;
#X msg 866 420 60 \$2;
#X msg 916 420 61 \$2;
#X obj 597 535 s MULTITOUCH_OSC;
#X obj 532 316 route x y;
#X obj 565 364 route abs_47 abs_48 abs_49 abs_53 abs_54 abs_57 abs_60
abs_61 abs_52;
#X msg 966 420 52 \$2;
#X msg 470 377 0 \$2;
#X msg 520 377 1 \$2;
#X obj 587 485 list prepend abs;
#X obj 587 510 list trim;
#X obj 640 330 route button_10;
#X msg 790 321 key 330 \$2;
#X obj 301 192 r MULTITOUCH.SETTINGS.OPEN;
#X msg 301 217 open;
#X obj 386 245 hidio;
#X obj 257 674 s MULTITOUCH.RAW;
#X obj 26 461 clone multitouch.tracker 10;
#X obj 270 447 route 48 49;
#X msg 162 505 MT_TOUCH_LENGTH \$1;
#X msg 218 533 MT_TOUCH_WIDTH \$1;
#X connect 0 0 17 0;
#X connect 1 0 5 1;
#X connect 1 0 11 0;
#X connect 1 1 2 0;
#X connect 1 2 18 0;
#X connect 1 3 18 1;
#X connect 1 4 45 0;
#X connect 2 0 5 0;
#X connect 3 0 5 0;
#X connect 4 0 5 0;
#X connect 5 0 12 0;
#X connect 5 0 44 0;
#X connect 6 0 1 0;
#X connect 6 1 7 0;
#X connect 7 0 8 0;
#X connect 8 0 10 0;
#X connect 10 0 9 0;
#X connect 11 0 12 0;
#X connect 14 0 13 0;
#X connect 15 0 18 2;
#X connect 16 0 12 0;
#X connect 17 2 14 0;
#X connect 18 0 3 0;
#X connect 18 1 4 0;
#X connect 18 2 42 0;
#X connect 19 0 6 0;
#X connect 20 1 21 0;
#X connect 21 0 31 0;
#X connect 21 1 38 0;
#X connect 22 0 36 0;
#X connect 23 0 36 0;
#X connect 24 0 36 0;
#X connect 25 0 36 0;
#X connect 26 0 36 0;
#X connect 27 0 36 0;
#X connect 28 0 36 0;
#X connect 29 0 36 0;
#X connect 31 0 34 0;
#X connect 31 1 35 0;
#X connect 31 2 32 0;
#X connect 32 0 22 0;
#X connect 32 1 23 0;
#X connect 32 2 24 0;
#X connect 32 3 25 0;
#X connect 32 4 26 0;
#X connect 32 5 27 0;
#X connect 32 6 28 0;
#X connect 32 7 29 0;
#X connect 32 8 33 0;
#X connect 33 0 36 0;
#X connect 34 0 36 0;
#X connect 35 0 36 0;
#X connect 36 0 37 0;
#X connect 37 0 30 0;
#X connect 38 0 39 0;
#X connect 39 0 30 0;
#X connect 40 0 41 0;
#X connect 41 0 18 2;
#X connect 42 0 20 0;
#X connect 42 1 18 3;
#X connect 44 0 43 0;
#X connect 45 0 46 0;
#X connect 45 1 47 0;
#X connect 46 0 5 0;
#X connect 47 0 5 0;
