#N canvas 400 162 1242 654 16;
#X obj 518 338 v MULTITOUCH.SLOT.ID;
#X msg 594 478 symbol \$1-slot;
#X obj 521 388 select 0;
#X obj 569 601 s;
#X obj 196 321 unpack f f;
#X msg 565 552 send_to \$1;
#X obj 195 464 +;
#X msg 218 594 set \$1;
#X obj 673 34 inlet;
#X obj 214 624 outlet;
#X obj 456 25 loadbang;
#X obj 456 54 list append \$1;
#X obj 456 83 select x y;
#X obj 196 350 *;
#X obj 293 356 *;
#X obj 196 379 +;
#X msg 456 112 1;
#X msg 510 117 -1;
#X obj 199 434 * \$2;
#X obj 514 251 spigot 1;
#X msg 700 269 0;
#X obj 237 145 route list no_mouse remove;
#X obj 565 525 list append \$0-from_slot;
#X obj 242 91 r \$0-from_slot;
#X msg 413 186 1;
#X obj 589 432 t b f b;
#X obj 513 292 t b;
#X obj 817 406 +;
#X obj 775 202 t f f b;
#X obj 842 270 f;
#X obj 778 295 -;
#X obj 367 625 outlet;
#X obj 653 126 t f f f f;
#X obj 869 197 spigot;
#X obj 900 391 == 0;
#X obj 838 452 spigot 1;
#X obj 195 257 spigot;
#X obj 215 551 t f f f f;
#X obj 772 345 * \$3;
#X obj 960 37 inlet set;
#X obj 195 493 min 127;
#X obj 195 522 max 0;
#X connect 0 0 2 0;
#X connect 1 0 3 1;
#X connect 2 1 25 0;
#X connect 4 0 13 0;
#X connect 4 1 14 0;
#X connect 5 0 3 0;
#X connect 6 0 40 0;
#X connect 7 0 9 0;
#X connect 8 0 32 0;
#X connect 10 0 11 0;
#X connect 11 0 12 0;
#X connect 12 0 16 0;
#X connect 12 1 17 0;
#X connect 13 0 15 0;
#X connect 14 0 15 1;
#X connect 15 0 18 0;
#X connect 16 0 13 1;
#X connect 17 0 14 1;
#X connect 18 0 6 0;
#X connect 19 0 26 0;
#X connect 20 0 19 1;
#X connect 20 0 0 0;
#X connect 21 0 36 0;
#X connect 21 1 34 0;
#X connect 21 1 36 1;
#X connect 21 1 33 1;
#X connect 21 2 24 0;
#X connect 22 0 5 0;
#X connect 23 0 21 0;
#X connect 24 0 19 1;
#X connect 25 0 22 0;
#X connect 25 1 1 0;
#X connect 25 2 20 0;
#X connect 26 0 0 0;
#X connect 27 0 35 0;
#X connect 28 0 30 0;
#X connect 28 2 29 0;
#X connect 29 0 30 1;
#X connect 29 0 27 1;
#X connect 30 0 38 0;
#X connect 32 0 19 0;
#X connect 32 1 6 1;
#X connect 32 2 28 0;
#X connect 32 3 33 0;
#X connect 33 0 29 1;
#X connect 34 0 35 1;
#X connect 35 0 37 0;
#X connect 36 0 4 0;
#X connect 37 0 7 0;
#X connect 37 1 31 0;
#X connect 37 2 6 1;
#X connect 37 3 29 1;
#X connect 38 0 27 0;
#X connect 39 0 29 1;
#X connect 39 0 6 1;
#X connect 39 0 7 0;
#X connect 40 0 41 0;
#X connect 41 0 37 0;
#X coords 0 654 1 653 85 60 0;
