#N canvas 676 152 1079 709 16;
#X obj 540 111 inlet;
#X obj 540 504 outlet;
#X obj 690 111 inlet;
#X obj 689 506 outlet;
#X text 562 70 X;
#X text 717 61 Y;
#X obj 839 505 outlet;
#X obj 840 111 inlet;
#X obj 563 204 cnv 15 250 40 empty empty empty 20 12 0 14 -257985 -66577
0;
#X obj 603 317 hcs/screensize;
#X obj 540 141 t f b;
#X obj 540 252 /;
#X obj 690 252 /;
#X obj 690 142 t f b;
#X floatatom 242 273 5 0 0 0 - - #0-set-device-number, f 5;
#X text 55 198 2) in the pd console \, look for your touchscreen device
number \, and report it here ->, f 20;
#X obj 595 174 r \$0-xrange;
#X obj 748 173 r \$0-yrange;
#X obj 239 158 bng 30 250 50 0 \$0-get-devices-list empty devices 33
7 0 14 -262144 -1 -1;
#X obj 241 314 bng 30 250 50 0 \$0-ok empty OK 8 13 0 14 -4034 -1 -1
;
#X obj 539 380 t f b;
#X obj 540 468 *;
#X obj 689 380 t f b;
#X obj 689 468 *;
#X msg 603 349 set \$1;
#X msg 748 350 set \$1;
#X obj 562 409 cnv 15 250 40 empty empty empty 20 12 0 14 -260097 -66577
0;
#X text 829 208 <- touch input device resolution, f 19;
#X text 54 155 1) click here ->;
#X text 57 314 3) click OK ->;
#X obj 358 390 r \$0-success;
#X text 56 349 If success \, you should get the name of your touchscreen
device here --->, f 27;
#X obj 847 18 namecanvas \$0-this;
#N canvas 256 284 1259 792 stuff 0;
#X obj 209 203 route absolute;
#X msg 209 261 set \$2;
#X msg 286 262 set \$2;
#X obj 134 11 inlet;
#X obj 209 290 s \$0-xrange;
#X obj 286 337 s \$0-yrange;
#X obj 314 32 r \$0-get-devices-list;
#X msg 314 61 devices;
#X obj 387 133 t b f;
#X obj 490 270 delay 100;
#X obj 490 299 t b b;
#X obj 490 328 delay 400;
#X msg 490 357 info;
#X obj 445 103 f;
#X obj 413 67 r \$0-ok;
#X obj 534 57 r \$0-set-device-number;
#X obj 209 232 route x y product;
#X obj 368 412 list prepend set;
#X obj 368 441 list trim;
#X obj 297 384 t b a;
#X msg 254 706 menusave;
#X obj 261 675 delay 100;
#X obj 254 735 s \$0-this;
#X obj 368 470 s \$0-success;
#X obj 666 588 route blank;
#X msg 654 699 vis 1;
#X obj 666 617 t b;
#X obj 666 650 delay 200;
#X obj 135 47 t b b;
#X msg 405 630, f 12;
#X msg 666 559 blank;
#X msg 46 386 reset;
#X msg 46 444 set;
#X msg 100 452 set blank;
#X text 39 364 reset module;
#X obj 42 415 t b b b;
#X obj 638 15 inlet reset;
#X obj 13 42 route open;
#X msg 13 71 vis 1;
#X obj 13 100 s \$0-this;
#X obj 230 15 inlet;
#X obj 437 684 outlet;
#X obj 776 57 r \$0-set-vendor/product-ID;
#X obj 686 93 r \$0-ok;
#X obj 686 122 list append;
#X obj 660 159 t b l;
#X msg 660 237 set open \$1 \, addcomma \, add2 1;
#X obj 209 174 route range product productID vendorID;
#X obj 689 319 symbol;
#X obj 776 319 symbol;
#X obj 695 373 pack s s;
#X msg 697 411 set open \$2 \$1 \, addcomma \, add2 1, f 12;
#X connect 0 0 16 0;
#X connect 1 0 4 0;
#X connect 2 0 5 0;
#X connect 3 0 37 0;
#X connect 6 0 7 0;
#X connect 7 0 41 0;
#X connect 8 0 9 0;
#X connect 8 1 46 0;
#X connect 9 0 10 0;
#X connect 10 0 11 0;
#X connect 10 1 29 0;
#X connect 11 0 12 0;
#X connect 12 0 41 0;
#X connect 13 0 8 0;
#X connect 14 0 13 0;
#X connect 15 0 13 1;
#X connect 16 0 1 0;
#X connect 16 1 2 0;
#X connect 17 0 18 0;
#X connect 18 0 23 0;
#X connect 18 0 30 0;
#X connect 19 0 21 0;
#X connect 19 1 17 0;
#X connect 20 0 22 0;
#X connect 21 0 20 0;
#X connect 24 0 26 0;
#X connect 25 0 22 0;
#X connect 26 0 27 0;
#X connect 27 0 25 0;
#X connect 28 0 29 0;
#X connect 28 1 30 0;
#X connect 29 0 41 0;
#X connect 30 0 24 0;
#X connect 31 0 35 0;
#X connect 32 0 29 0;
#X connect 32 0 23 0;
#X connect 33 0 30 0;
#X connect 35 0 32 0;
#X connect 35 1 33 0;
#X connect 35 2 21 0;
#X connect 36 0 31 0;
#X connect 37 0 38 0;
#X connect 37 1 28 0;
#X connect 38 0 39 0;
#X connect 40 0 47 0;
#X connect 42 0 44 1;
#X connect 43 0 44 0;
#X connect 45 0 9 0;
#X connect 46 0 29 0;
#X connect 47 0 0 0;
#X connect 47 1 19 0;
#X connect 47 2 48 0;
#X connect 47 3 49 0;
#X connect 48 0 50 0;
#X connect 49 0 50 1;
#X connect 50 0 51 0;
#X connect 51 0 29 0;
#X restore 840 301 pd stuff;
#X text 82 11 !!! WELCOME IN PD-MULTITOUCH !!!;
#X text 61 48 Before you can use multitouch mode in puredata \, you
have first to adjust this patch according to your configuration, f
38;
#X msg 107 412;
#X msg 585 213 3968;
#X msg 735 210 2240;
#X obj 952 272 bng 20 250 50 0 empty empty reset 35 7 0 12 -262144
-1 -1;
#X obj 898 111 inlet;
#X msg 733 416 1080;
#X obj 406 560 bng 40 250 50 0 empty empty empty 17 7 0 10 -4032 -1
-1;
#X msg 583 417 1920;
#X obj 159 444 cnv 15 350 30 empty empty empty 20 12 0 14 -257985 -66577
0;
#X text 39 447 ... and the touchscreen input device resolution may
have changed., f 47;
#X obj 166 502 cnv 15 250 30 empty empty empty 20 12 0 14 -260097 -66577
0;
#X text 33 505 4) check your screen resolution :, f 47;
#X text 85 611 If you have more screens (extended desktop) \, I think
you have to edit the orange values manually;
#X text 37 662 5) save and close this patch;
#X text 850 413 <- touchscreen resolution, f 16;
#X text 92 538 If you have only one screen \, you should click here
to adjust the values automatically ----->, f 31;
#X connect 0 0 10 0;
#X connect 2 0 13 0;
#X connect 7 0 33 0;
#X connect 9 0 24 0;
#X connect 9 1 25 0;
#X connect 10 0 11 0;
#X connect 10 1 37 0;
#X connect 11 0 20 0;
#X connect 12 0 22 0;
#X connect 13 0 12 0;
#X connect 13 1 38 0;
#X connect 16 0 37 0;
#X connect 17 0 38 0;
#X connect 20 0 21 0;
#X connect 20 1 43 0;
#X connect 21 0 1 0;
#X connect 22 0 23 0;
#X connect 22 1 41 0;
#X connect 23 0 3 0;
#X connect 24 0 43 0;
#X connect 25 0 41 0;
#X connect 30 0 36 0;
#X connect 33 0 6 0;
#X connect 37 0 11 1;
#X connect 38 0 12 1;
#X connect 39 0 33 2;
#X connect 40 0 33 1;
#X connect 41 0 23 1;
#X connect 42 0 9 0;
#X connect 43 0 21 1;
