#N canvas 1 193 861 772 16;
#N canvas 898 58 1920 1023 xylistener 1;
#X obj 518 338 v MULTITOUCH.SLOT.ID;
#X msg 594 478 symbol \$1-slot;
#X obj 521 388 select 0;
#X obj 569 601 s;
#X obj 201 293 unpack f f;
#X msg 565 552 send_to \$1;
#X obj 158 471 +;
#X obj 552 247 spigot 1;
#X msg 700 269 0;
#X obj 231 143 route list no_mouse remove;
#X obj 565 525 list append \$0-from_slot;
#X obj 242 91 r \$0-from_slot;
#X msg 653 181 1;
#X obj 318 189 tgl 15 0 empty empty empty 17 7 0 10 -262144 -1 -1 0
1;
#X obj 382 186 bng 15 250 50 0 empty empty empty 17 7 0 10 -262144
-1 -1;
#X obj 513 292 t b;
#X obj 508 58 inlet;
#X obj 874 551 outlet;
#X obj 589 432 t b f b b;
#X msg 849 486 1;
#X msg 845 407 0;
#X obj 158 500 max 0;
#X obj 341 463 +;
#X obj 341 492 max 0;
#X obj 308 371 * -1;
#X obj 500 779 cyclone/mousestate;
#X msg 504 729 poll;
#X obj 408 896 select 0;
#X msg 408 925 nopoll;
#X floatatom 518 367 5 0 0 0 - - -;
#X obj 534 667 t b b;
#X obj 600 917 -;
#X obj 654 901 spigot;
#X msg 686 866 0;
#X obj 598 833 t f f b f;
#X obj 730 921 -;
#X obj 784 905 spigot;
#X msg 816 870 0;
#X obj 728 837 t f f b f;
#X msg 931 729 1;
#X text 622 666 Pour utiliser la souris quand pas en mode touch;
#X obj 495 845 spigot;
#X msg 494 926 0;
#X obj 158 587 atan2;
#X floatatom 53 623 5 0 0 0 - - -;
#X obj 232 845 outlet;
#X obj 158 529 min 400;
#X obj 158 558 - 200;
#X obj 341 550 - 200;
#X obj 341 521 min 400;
#X obj 155 432 * 1;
#X obj 338 425 * 1;
#X connect 0 0 2 0;
#X connect 0 0 29 0;
#X connect 1 0 3 1;
#X connect 2 0 30 0;
#X connect 2 1 18 0;
#X connect 4 0 50 0;
#X connect 4 1 24 0;
#X connect 5 0 3 0;
#X connect 6 0 21 0;
#X connect 7 0 15 0;
#X connect 8 0 7 1;
#X connect 8 0 0 0;
#X connect 9 0 4 0;
#X connect 9 1 13 0;
#X connect 9 2 12 0;
#X connect 9 2 14 0;
#X connect 9 2 20 0;
#X connect 10 0 5 0;
#X connect 11 0 9 0;
#X connect 12 0 7 1;
#X connect 15 0 0 0;
#X connect 16 0 7 0;
#X connect 18 0 10 0;
#X connect 18 1 1 0;
#X connect 18 2 8 0;
#X connect 18 3 19 0;
#X connect 19 0 17 0;
#X connect 20 0 17 0;
#X connect 21 0 46 0;
#X connect 22 0 23 0;
#X connect 23 0 49 0;
#X connect 24 0 51 0;
#X connect 25 0 41 0;
#X connect 25 1 34 0;
#X connect 25 2 38 0;
#X connect 26 0 25 0;
#X connect 27 0 28 0;
#X connect 27 0 42 0;
#X connect 27 0 20 0;
#X connect 28 0 25 0;
#X connect 30 0 26 0;
#X connect 30 1 39 0;
#X connect 30 1 19 0;
#X connect 31 0 50 0;
#X connect 32 0 31 1;
#X connect 33 0 32 1;
#X connect 34 0 31 1;
#X connect 34 1 31 0;
#X connect 34 2 33 0;
#X connect 34 3 32 0;
#X connect 35 0 24 0;
#X connect 36 0 35 1;
#X connect 37 0 36 1;
#X connect 38 0 35 1;
#X connect 38 1 35 0;
#X connect 38 2 37 0;
#X connect 38 3 36 0;
#X connect 39 0 32 1;
#X connect 39 0 36 1;
#X connect 39 0 41 1;
#X connect 41 0 27 0;
#X connect 42 0 41 1;
#X connect 43 0 44 0;
#X connect 43 0 45 0;
#X connect 46 0 6 1;
#X connect 46 0 47 0;
#X connect 47 0 43 0;
#X connect 48 0 43 1;
#X connect 49 0 22 1;
#X connect 49 0 48 0;
#X connect 50 0 6 0;
#X connect 51 0 22 0;
#X restore 808 356 pd xylistener;
#X obj 705 641 s \$0-hcursor;
#X obj 1102 590 s \$0-vcursor;
#X obj 884 137 loadbang;
#X obj 826 604 outlet;
#X obj 925 577 outlet;
#X obj 1001 571 outlet;
#X obj 884 166 list append \$1 \$2;
#X obj 884 195 unpack f f;
#X msg 886 259 set \$1;
#X msg 966 258 set \$1;
#X obj 100 100 bng 400 250 50 0 empty empty empty 17 7 0 10 -228856
-228856 -1;
#X obj 432 402 cnv 2 10 10 empty \$0-vcursor empty 20 12 0 14 -159808
-66577 0;
#X obj 448 414 cnv 2 10 10 empty \$0-hcursor empty 20 12 0 14 -159808
-66577 0;
#X obj 749 446 sin;
#X obj 809 448 cos;
#X msg 552 566 vis_size 10 10;
#X msg 686 609 pos \$1 \$2;
#X obj 808 394 t f f f;
#X obj 712 544 pack f f;
#X obj 716 486 * 195;
#X obj 817 487 * -195;
#X obj 712 515 + 295;
#X obj 817 516 + 295;
#X obj 1039 476 pack f f;
#X obj 1039 447 + 295;
#X obj 1144 448 + 295;
#X obj 1043 418 * 175;
#X obj 1144 419 * -175;
#X msg 1045 502 pos \$1 \$2;
#X connect 0 0 18 0;
#X connect 0 1 6 0;
#X connect 3 0 7 0;
#X connect 7 0 8 0;
#X connect 8 0 9 0;
#X connect 8 1 10 0;
#X connect 11 0 0 0;
#X connect 14 0 20 0;
#X connect 14 0 27 0;
#X connect 15 0 21 0;
#X connect 15 0 28 0;
#X connect 16 0 1 0;
#X connect 16 0 2 0;
#X connect 17 0 1 0;
#X connect 18 0 14 0;
#X connect 18 1 15 0;
#X connect 18 2 5 0;
#X connect 19 0 17 0;
#X connect 20 0 22 0;
#X connect 21 0 23 0;
#X connect 22 0 19 0;
#X connect 23 0 19 1;
#X connect 24 0 29 0;
#X connect 25 0 24 0;
#X connect 26 0 24 1;
#X connect 27 0 25 0;
#X connect 28 0 26 0;
#X connect 29 0 2 0;
#X coords 0 -1 1 1 400 400 2 100 100;
