#N canvas 216 182 1022 772 16;
#X obj 100 100 tgl 200 0 empty empty empty 17 7 0 10 -233017 -233017
-233017 1 1;
#N canvas 259 77 1920 1023 xylistener 0;
#X obj 518 338 v MULTITOUCH.SLOT.ID;
#X msg 594 478 symbol \$1-slot;
#X obj 521 388 select 0;
#X obj 569 601 s;
#X msg 565 552 send_to \$1;
#X obj 552 247 spigot 1;
#X msg 700 269 0;
#X obj 231 143 route list no_mouse remove;
#X obj 565 525 list append \$0-from_slot;
#X obj 242 91 r \$0-from_slot;
#X msg 653 181 1;
#X obj 318 189 tgl 15 0 empty empty empty 17 7 0 10 -262144 -1 -1 0
1;
#X obj 382 186 bng 15 250 50 0 empty empty empty 17 7 0 10 -262144
-1 -1;
#X obj 513 292 t b;
#X obj 508 58 inlet;
#X obj 874 551 outlet;
#X obj 589 432 t b f b b;
#X msg 849 486 1;
#X msg 845 407 0;
#X obj 500 779 cyclone/mousestate;
#X obj 408 896 select 0;
#X obj 534 667 t b b;
#X msg 594 714 1;
#X text 622 666 Pour utiliser la souris quand pas en mode touch;
#X obj 495 845 spigot;
#X msg 494 926 0;
#X connect 0 0 2 0;
#X connect 1 0 3 1;
#X connect 2 0 21 0;
#X connect 2 1 16 0;
#X connect 4 0 3 0;
#X connect 5 0 13 0;
#X connect 6 0 5 1;
#X connect 6 0 0 0;
#X connect 7 1 11 0;
#X connect 7 2 10 0;
#X connect 7 2 12 0;
#X connect 7 2 18 0;
#X connect 8 0 4 0;
#X connect 9 0 7 0;
#X connect 10 0 5 1;
#X connect 13 0 0 0;
#X connect 14 0 5 0;
#X connect 16 0 8 0;
#X connect 16 1 1 0;
#X connect 16 2 6 0;
#X connect 16 3 17 0;
#X connect 17 0 15 0;
#X connect 18 0 15 0;
#X connect 19 0 24 0;
#X connect 20 0 25 0;
#X connect 20 0 18 0;
#X connect 21 1 22 0;
#X connect 21 1 17 0;
#X connect 22 0 24 1;
#X connect 24 0 20 0;
#X connect 25 0 24 1;
#X restore 285 429 pd xylistener;
#X obj 468 582 outlet;
#X msg 625 281 color 13 13 13;
#X msg 635 321 color 10 10 10;
#X obj 285 458 select 0 1;
#X connect 0 0 1 0;
#X connect 1 0 2 0;
#X connect 1 0 5 0;
#X connect 3 0 0 0;
#X connect 4 0 0 0;
#X connect 5 0 4 0;
#X connect 5 1 3 0;
#X coords 0 -1 1 1 200 200 2 100 100;
