#N canvas 16 272 1683 785 16;
#X msg 464 157 get_pos;
#X obj 464 194 s \$0-pos-rcv;
#X obj 464 224 r \$0-pos;
#X obj 462 259 unpack f f;
#X obj 442 333 -;
#X obj 540 334 -;
#X obj 558 513 &&;
#X obj 547 673 select 1 0;
#X obj 594 607 change;
#X obj 444 371 moses 0;
#X obj 584 407 moses 0;
#X msg 585 445 0;
#X msg 444 402 0;
#X obj 602 206 list prepend 0;
#X obj 605 273 route -1;
#X obj 606 232 route 1 0;
#X obj 933 342 route update;
#X obj 704 354 unpack f f f;
#X obj 791 248 f;
#X msg 612 345 0;
#X obj 930 250 list split 1;
#X obj 930 279 list prepend;
#X obj 930 308 list trim;
#X obj 316 21 iemguts/receivecanvas 1;
#X obj 105 402 list prepend 0;
#X obj 105 433 route 0 1;
#N canvas 0 57 1920 1023 savestate 0;
#X obj 157 276 savestate;
#X obj 269 320 s \$0-save;
#X obj 142 107 v \$0-w;
#X obj 157 305 list trim;
#X obj 189 32 r \$0-save;
#X obj 189 61 t b b;
#X obj 232 107 v \$0-h;
#X obj 211 473 unpack f f;
#X obj 140 156 pack f f;
#X obj 163 230 list;
#X obj 158 545 s \$0-w;
#X obj 235 530 s \$0-h;
#X msg 140 185 -size \$1 \$2;
#X obj 19 32 loadbang;
#X obj 19 106 spigot 1;
#X msg 88 76 0;
#X obj 335 115 v \$0-back_color;
#X obj 501 113 v \$0-cursor_color;
#X obj 689 109 v \$0-front_color;
#X msg 335 144 -back_color \$1;
#X msg 505 144 -cursor_color \$1;
#X msg 675 144 -front_color \$1;
#X obj 343 451 s \$0-back_color;
#X obj 650 478 s \$0-cursor_color;
#X obj 514 439 s \$0-front_color;
#X obj 700 447 s \$0-jump_on_click;
#X obj 270 395 route -size -back_color -front_color -cursor_color -jump_on_click
-mode;
#X obj 914 446 s \$0-mode;
#X obj 890 106 v \$0-mode;
#X msg 890 135 -mode \$1;
#X msg 21 303 -size 60 60 \, -back_color 10 \, -front_color 1 \, -cursor_color
-1, f 10;
#X connect 0 0 3 0;
#X connect 0 0 15 0;
#X connect 0 1 1 0;
#X connect 2 0 8 0;
#X connect 3 0 26 0;
#X connect 4 0 5 0;
#X connect 5 0 2 0;
#X connect 5 1 6 0;
#X connect 5 1 16 0;
#X connect 5 1 28 0;
#X connect 5 1 18 0;
#X connect 5 1 17 0;
#X connect 6 0 8 1;
#X connect 7 0 10 0;
#X connect 7 1 11 0;
#X connect 8 0 12 0;
#X connect 9 0 0 0;
#X connect 12 0 9 0;
#X connect 13 0 14 0;
#X connect 14 0 30 0;
#X connect 15 0 14 1;
#X connect 16 0 19 0;
#X connect 17 0 20 0;
#X connect 18 0 21 0;
#X connect 19 0 9 0;
#X connect 20 0 9 0;
#X connect 21 0 9 0;
#X connect 26 0 7 0;
#X connect 26 1 22 0;
#X connect 26 2 24 0;
#X connect 26 3 23 0;
#X connect 26 4 25 0;
#X connect 26 5 27 0;
#X connect 28 0 29 0;
#X connect 29 0 9 0;
#X connect 30 0 26 0;
#X restore 1408 282 pd savestate;
#X obj 1409 234 namecanvas \$0-this;
#X msg 98 66 size \$1 \$2;
#X obj 108 3 r \$0-w;
#X obj 192 1 r \$0-h;
#X obj 98 37 pack f f;
#X obj 192 30 - 6;
#N canvas 0 50 1005 538 resize 0;
#X obj 51 17 inlet;
#X msg -74 585 dirty 1;
#X obj 157 237 spigot;
#X msg 109 186 1;
#X msg 78 247 0;
#X obj 307 211 t l b;
#X obj 110 479 -;
#X obj 247 472 -;
#X obj 167 512 r \$0-w;
#X obj 298 515 r \$0-h;
#X obj 153 551 +;
#X obj 152 621 s \$0-w;
#X obj 247 546 +;
#X obj 254 616 s \$0-h;
#X obj 57 106 spigot 1;
#X obj 57 135 t b b;
#X msg 129 73 0;
#X msg 79 281 1;
#X obj 154 322 unpack f f f;
#X obj 156 271 route mouseup motion;
#X obj 108 360 t f f b f;
#X obj 229 357 t f f b f;
#X obj 289 433 spigot 1;
#X msg 367 397 0;
#X obj 143 441 spigot 1;
#X msg 212 405 0;
#X obj 235 85 iemguts/receivecanvas 2;
#X obj -71 611 iemguts/sendcanvas 2;
#X obj 698 101 r \$0-w;
#X obj 803 97 r \$0-h;
#X obj 699 188 pack f f;
#X obj 601 310 t b a;
#X msg 559 346 dirty 0;
#X obj 555 384 s \$0-this;
#X msg 546 156 120 254;
#X msg 483 279 donecanvasdialog 1 -1 3 0 -1 1 1 \$1 \$2 100 100;
#X text 673 383 the parent canvas;
#X obj 167 589 max 5;
#X obj 276 585 max 5;
#X obj 803 126 t b f;
#X connect 0 0 14 0;
#X connect 1 0 27 0;
#X connect 2 0 19 0;
#X connect 3 0 2 1;
#X connect 4 0 2 1;
#X connect 6 0 10 0;
#X connect 7 0 12 0;
#X connect 8 0 10 1;
#X connect 9 0 12 1;
#X connect 10 0 37 0;
#X connect 12 0 38 0;
#X connect 14 0 15 0;
#X connect 15 0 3 0;
#X connect 15 1 16 0;
#X connect 15 1 1 0;
#X connect 16 0 14 1;
#X connect 17 0 14 1;
#X connect 17 0 24 1;
#X connect 17 0 22 1;
#X connect 18 0 20 0;
#X connect 18 1 21 0;
#X connect 19 0 4 0;
#X connect 19 0 17 0;
#X connect 19 1 18 0;
#X connect 20 0 6 1;
#X connect 20 1 6 0;
#X connect 20 2 25 0;
#X connect 20 3 24 0;
#X connect 21 0 7 1;
#X connect 21 1 7 0;
#X connect 21 2 23 0;
#X connect 21 3 22 0;
#X connect 22 0 7 1;
#X connect 23 0 22 1;
#X connect 24 0 6 1;
#X connect 25 0 24 1;
#X connect 26 0 2 0;
#X connect 28 0 30 0;
#X connect 29 0 39 0;
#X connect 30 0 35 0;
#X connect 31 0 32 0;
#X connect 31 1 33 0;
#X connect 32 0 33 0;
#X connect 34 0 35 0;
#X connect 35 0 31 0;
#X connect 37 0 11 0;
#X connect 38 0 13 0;
#X connect 39 0 30 0;
#X connect 39 1 30 1;
#X restore 148 470 pd resize;
#X obj 548 373 r \$0-w;
#X obj 702 404 r \$0-h;
#X obj 864 727 outlet;
#X obj 100 99 cnv 5 5 5 \$0-pos \$0-pos-rcv empty 20 12 0 14 -66577
-66577 0;
#X obj 100 102 vsl 360 60 0 127 0 0 empty empty empty 0 20 0 20 -233017
-233017 -233017 0 1;
#X msg 790 213 -1;
#X obj 612 311 route remove update pressure;
#X obj 1129 727 outlet;
#X msg 1114 455 \$1;
#X obj 611 41 r MULTITOUCH.COOKED;
#X obj 604 177 spigot;
#X obj 898 37 r MULTITOUCH.ACTIVE;
#X obj 898 66 t b;
#X msg 847 178 0;
#X msg 843 82 stop;
#X msg 652 142 1;
#X obj 843 117 delay 10;
#X obj 639 110 delay 1;
#X obj 513 400 / 60;
#X obj 651 440 / 60;
#X obj 558 477 < 1;
#X obj 651 469 < 1;
#X obj 978 724 outlet;
#X obj 907 620 pack f f;
#X obj 509 553 spigot;
#X obj 510 438 t f f;
#X obj 956 552 - 1;
#X obj 957 588 * -1;
#X text 1291 10 format d'entrée MULTITOUCH.COOKED;
#X text 1407 44 <slot> remove;
#X text 1410 63 <slot> update <x> <y>;
#X text 1411 83 <slot> pressure <a>;
#X obj 665 681 r \$0-back_color;
#X obj 262 660 r \$0-front_color;
#X msg 447 764 color 1 1 1;
#X msg 660 754 color 10 10 10;
#X msg 678 715 set color \$1 \$1 \$1;
#X msg 263 696 set color \$1 \$1 \$1;
#N canvas 0 50 1202 739 monoclickmode 0;
#X obj 31 11 inlet;
#X msg 74 419 0;
#X msg 42 178 1;
#X obj 30 41 t b;
#X obj 43 478 outlet;
#X obj 35 144 select 0;
#X text 251 111 Pour utiliser la souris quand pas en mode multitouch
;
#X obj 25 106 v TRACKED.SLOTS;
#X obj 30 70 delay 1;
#X obj 296 573 outlet;
#X obj 234 223 iemguts/receivecanvas 2;
#X obj 231 290 spigot;
#X msg 325 261 0;
#X msg 181 256 1;
#X obj 239 329 route motion mouseup;
#X obj 774 44 inlet zoom;
#X obj 340 394 unpack f f f;
#X obj 340 423 / 1;
#X obj 393 427 / 1;
#X obj 344 456 pack f f f;
#X obj 533 369 t f f;
#X obj 344 485 t l b;
#X obj 409 570 outlet;
#X msg 410 530 50;
#X obj 516 47 inlet mouse;
#X obj 181 411 list append;
#X obj 181 440 list split 2;
#X obj 48 295 t f b b;
#X connect 0 0 3 0;
#X connect 1 0 4 0;
#X connect 2 0 27 0;
#X connect 3 0 8 0;
#X connect 5 0 2 0;
#X connect 7 0 5 0;
#X connect 8 0 7 0;
#X connect 10 0 11 0;
#X connect 11 0 14 0;
#X connect 12 0 11 1;
#X connect 13 0 11 1;
#X connect 14 0 16 0;
#X connect 14 1 1 0;
#X connect 14 1 12 0;
#X connect 15 0 20 0;
#X connect 16 0 17 0;
#X connect 16 1 18 0;
#X connect 16 2 19 2;
#X connect 17 0 19 0;
#X connect 18 0 19 1;
#X connect 19 0 21 0;
#X connect 20 0 17 1;
#X connect 20 1 18 1;
#X connect 21 0 9 0;
#X connect 21 1 23 0;
#X connect 23 0 22 0;
#X connect 24 0 25 1;
#X connect 25 0 26 0;
#X connect 26 0 16 0;
#X connect 27 0 4 0;
#X connect 27 1 13 0;
#X connect 27 2 25 0;
#X restore 105 537 pd monoclickmode;
#X obj 316 44 route editmode mouse zoom;
#X obj 646 81 t b b;
#X msg 1121 98 vis 1;
#X obj 1125 60 iemguts/propertybang;
#X obj 1207 99 r \$0-ok;
#X msg 1207 128 vis 0;
#N canvas 64 684 402 326 touchzone_properties(\$0) 0;
#X floatatom 126 128 5 10 20000 0 width #0-w-rcv #0-w;
#X floatatom 128 191 5 0 0 0 back_color #0-bc-rcv #0-bc-snd;
#X floatatom 128 221 5 0 0 0 front_color #0-fc-rcv #0-fc-snd;
#N canvas 0 50 450 300 (subpatch) 0;
#X obj 100 100 cnv 20 20 20 empty \$0-bc_cnv-rcv empty 20 12 0 14 -233017
-66577 0;
#X obj 170 75 r \$0-back_color;
#X msg 170 104 color \$1 \$1;
#X obj 170 132 s \$0-bc_cnv-rcv;
#X connect 1 0 2 0;
#X connect 2 0 3 0;
#X coords 0 -1 1 1 20 20 2 100 100;
#X restore 198 193 pd;
#N canvas 0 50 450 300 (subpatch) 0;
#X obj 100 100 cnv 20 20 20 empty \$0-fc_cnv-rcv empty 20 12 0 14 -166441
-66577 0;
#X msg 170 104 color \$1 \$1;
#X obj 170 75 r \$0-front_color;
#X obj 170 132 s \$0-fc_cnv-rcv;
#X connect 1 0 3 0;
#X connect 2 0 1 0;
#X coords 0 -1 1 1 20 20 2 100 100;
#X restore 198 223 pd;
#X floatatom 129 254 5 0 0 0 cursor_color #0-cc-rcv #0-cc-snd;
#N canvas 0 50 450 300 (subpatch) 0;
#X obj 100 100 cnv 20 20 20 empty \$0-cc_cnv-rcv empty 20 12 0 14 -1
-66577 0;
#X msg 170 104 color \$1 \$1;
#X obj 170 75 r \$0-cursor_color;
#X obj 170 132 s \$0-cc_cnv-rcv;
#X connect 1 0 3 0;
#X connect 2 0 1 0;
#X coords 0 -1 1 1 20 20 2 100 100;
#X restore 199 256 pd;
#X obj 197 85 tgl 20 0 \$0-jump_on_click \$0-jump_on_click-rcv jump_on_click
-100 7 0 12 -262144 -1 -1 1 1;
#X obj 133 32 vradio 20 1 0 2 \$0-mode \$0-mode-rcv cursor_mode -100
-10 0 15 -262144 -1 -1 0;
#X text 161 44 infinite (-pi \, +pi);
#X text 161 24 one rotation (0 \, 1);
#X obj 300 264 bng 40 250 50 0 \$0-ok empty OK 5 20 0 20 -204786 -1
-1;
#X floatatom 126 151 5 10 20000 0 height #0-h-rcv #0-h;
#X restore 1115 196 pd touchzone_properties(\$0);
#X obj 1113 163 s pd-touchzone_properties(\$0);
#X obj 242 58 t b f;
#N canvas 0 50 899 442 gui_feedback 0;
#X msg 88 180 set \$1;
#X obj 92 154 r \$0-w;
#X obj 90 207 s \$0-w-rcv;
#X msg 253 181 set \$1;
#X obj 251 50 r \$0-bc-snd;
#X obj 255 208 s \$0-bc-rcv;
#X obj 257 155 r \$0-back_color;
#X obj 251 108 s \$0-back_color;
#X msg 446 182 set \$1;
#X obj 444 51 r \$0-fc-snd;
#X obj 444 109 s \$0-front_color;
#X obj 450 156 r \$0-front_color;
#X obj 448 209 s \$0-fc-rcv;
#X msg 656 182 set \$1;
#X obj 654 51 r \$0-cc-snd;
#X obj 654 109 s \$0-cursor_color;
#X obj 660 156 r \$0-cursor_color;
#X obj 658 209 s \$0-cc-rcv;
#X obj 223 298 r \$0-jump_on_click;
#X msg 223 327 set \$1;
#X obj 223 356 s \$0-jump_on_click-rcv;
#X msg 526 323 set \$1;
#X obj 526 294 r \$0-mode;
#X obj 526 352 s \$0-mode-rcv;
#X msg 68 390 set \$1;
#X obj 71 364 r \$0-h;
#X obj 70 417 s \$0-h-rcv;
#X connect 0 0 2 0;
#X connect 1 0 0 0;
#X connect 3 0 5 0;
#X connect 4 0 7 0;
#X connect 6 0 3 0;
#X connect 8 0 12 0;
#X connect 9 0 10 0;
#X connect 11 0 8 0;
#X connect 13 0 17 0;
#X connect 14 0 15 0;
#X connect 16 0 13 0;
#X connect 18 0 19 0;
#X connect 19 0 20 0;
#X connect 21 0 23 0;
#X connect 22 0 21 0;
#X connect 24 0 26 0;
#X connect 25 0 24 0;
#X restore 1115 227 pd gui_feedback;
#X msg 597 703 color \$1 \$1 \$1;
#X obj 855 664 pipe 0;
#X connect 0 0 1 0;
#X connect 2 0 3 0;
#X connect 3 0 4 1;
#X connect 3 1 5 1;
#X connect 4 0 9 0;
#X connect 5 0 10 0;
#X connect 6 0 8 0;
#X connect 6 0 58 1;
#X connect 7 0 68 0;
#X connect 7 0 18 0;
#X connect 7 1 69 0;
#X connect 8 0 13 1;
#X connect 8 0 7 0;
#X connect 8 0 84 0;
#X connect 9 0 12 0;
#X connect 9 1 52 0;
#X connect 10 0 11 0;
#X connect 10 1 53 0;
#X connect 11 0 6 1;
#X connect 12 0 6 0;
#X connect 13 0 15 0;
#X connect 14 0 40 0;
#X connect 15 0 14 0;
#X connect 15 1 20 0;
#X connect 16 0 17 0;
#X connect 17 0 4 0;
#X connect 17 1 5 0;
#X connect 17 2 18 1;
#X connect 18 0 14 1;
#X connect 19 0 8 0;
#X connect 20 0 21 0;
#X connect 20 1 21 1;
#X connect 21 0 22 0;
#X connect 22 0 16 0;
#X connect 23 0 73 0;
#X connect 24 0 25 0;
#X connect 25 0 72 0;
#X connect 25 1 33 0;
#X connect 28 0 38 0;
#X connect 29 0 31 0;
#X connect 30 0 32 0;
#X connect 31 0 28 0;
#X connect 32 0 81 0;
#X connect 34 0 52 1;
#X connect 35 0 53 1;
#X connect 38 0 24 0;
#X connect 39 0 18 0;
#X connect 40 0 19 0;
#X connect 40 0 39 0;
#X connect 40 1 17 0;
#X connect 40 2 42 0;
#X connect 42 0 41 0;
#X connect 43 0 44 0;
#X connect 44 0 13 0;
#X connect 45 0 46 0;
#X connect 46 0 50 0;
#X connect 47 0 44 1;
#X connect 48 0 50 0;
#X connect 49 0 44 1;
#X connect 50 0 47 0;
#X connect 51 0 48 0;
#X connect 51 0 49 0;
#X connect 52 0 59 0;
#X connect 53 0 55 0;
#X connect 53 0 60 0;
#X connect 54 0 6 0;
#X connect 55 0 6 1;
#X connect 57 0 56 0;
#X connect 58 0 57 0;
#X connect 59 0 58 0;
#X connect 59 1 54 0;
#X connect 60 0 61 0;
#X connect 61 0 57 1;
#X connect 66 0 70 0;
#X connect 66 0 83 0;
#X connect 67 0 71 0;
#X connect 68 0 38 0;
#X connect 69 0 38 0;
#X connect 70 0 69 0;
#X connect 71 0 68 0;
#X connect 72 0 8 0;
#X connect 72 1 17 0;
#X connect 72 2 42 0;
#X connect 73 0 24 1;
#X connect 73 1 74 0;
#X connect 73 1 72 1;
#X connect 73 2 72 2;
#X connect 74 0 51 0;
#X connect 74 1 0 0;
#X connect 75 0 80 0;
#X connect 76 0 75 0;
#X connect 77 0 78 0;
#X connect 78 0 80 0;
#X connect 81 0 31 0;
#X connect 81 1 31 1;
#X connect 83 0 38 0;
#X connect 84 0 36 0;
#X coords 0 -1 1 1 360 66 2 100 100;
