#N canvas 112 315 1920 1023 16;
#X obj 813 246 - 127;
#X obj 100 102 vsl 120 248 0 127 0 0 empty empty empty 0 -9 0 10 -258113
-258113 -1 0 1;
#X obj 809 481 s \$0-cnv;
#X obj 100 100 cnv 1 120 254 empty \$0-cnv empty 20 12 0 14 -228856
-66577 0;
#X obj 574 50 inlet;
#X obj 574 79 route float set;
#X obj 575 206 t f f;
#X obj 593 341 outlet;
#X obj 826 43 loadbang;
#X obj 823 80 f \$1;
#X obj 660 134 t f f;
#X obj 348 143 multitouch.listener y 0.5 1;
#X obj 1098 58 iemguts/propertybang;
#X obj 281 365 iemguts/receivecanvas 1;
#X obj 281 388 route editmode;
#X obj 97 434 list prepend 0;
#X obj 97 463 route 0 1;
#N canvas 1128 322 550 511 savestate 0;
#X obj 157 276 savestate;
#X obj 269 320 s \$0-save;
#X obj 142 107 v \$0-w;
#X obj 157 305 list trim;
#X obj 189 32 r \$0-save;
#X obj 189 61 t b b;
#X obj 232 107 v \$0-h;
#X obj 160 385 route -size;
#X obj 160 414 unpack f f;
#X obj 140 156 pack f f;
#X obj 163 230 list;
#X obj 147 459 s \$0-w;
#X obj 249 454 s \$0-h;
#X msg 28 275 120 254;
#X msg 140 185 -size \$1 \$2;
#X obj 19 32 loadbang;
#X obj 19 106 spigot 1;
#X msg 88 76 0;
#X connect 0 0 3 0;
#X connect 0 0 17 0;
#X connect 0 1 1 0;
#X connect 2 0 9 0;
#X connect 3 0 7 0;
#X connect 4 0 5 0;
#X connect 5 0 2 0;
#X connect 5 1 6 0;
#X connect 6 0 9 1;
#X connect 7 0 8 0;
#X connect 8 0 11 0;
#X connect 8 1 12 0;
#X connect 9 0 14 0;
#X connect 10 0 0 0;
#X connect 13 0 8 0;
#X connect 14 0 10 0;
#X connect 15 0 16 0;
#X connect 16 0 13 0;
#X connect 17 0 16 1;
#X restore 1513 79 pd savestate;
#X obj 1514 31 namecanvas \$0-this;
#X obj 807 379 *;
#X obj 905 285 r \$0-h;
#X obj 806 415 list prepend 120;
#X obj 947 373 r \$0-w;
#X msg 809 452 vis_size \$1 \$2;
#X obj 905 314 t b f;
#X msg 812 189 0;
#X msg 107 61 size \$1 \$2;
#X obj 117 -2 r \$0-w;
#X obj 201 -4 r \$0-h;
#X obj 107 32 pack f f;
#X obj 201 25 - 6;
#X obj 805 344 f 1;
#X obj 813 304 / -127;
#N canvas 0 50 1005 538 resize 0;
#X obj 51 17 inlet;
#X msg -74 585 dirty 1;
#X obj 157 237 spigot;
#X msg 109 186 1;
#X msg 78 247 0;
#X obj 307 211 t l b;
#X obj 110 479 -;
#X obj 247 472 -;
#X obj 167 512 r \$0-w;
#X obj 298 515 r \$0-h;
#X obj 153 551 +;
#X obj 152 591 s \$0-w;
#X obj 247 546 +;
#X obj 254 586 s \$0-h;
#X obj 57 106 spigot 1;
#X obj 57 135 t b b;
#X msg 129 73 0;
#X msg 79 281 1;
#X obj 154 322 unpack f f f;
#X obj 156 271 route mouseup motion;
#X obj 108 360 t f f b f;
#X obj 229 357 t f f b f;
#X obj 289 433 spigot 1;
#X msg 367 397 0;
#X obj 143 441 spigot 1;
#X msg 212 405 0;
#X obj 235 85 iemguts/receivecanvas 2;
#X obj -71 611 iemguts/sendcanvas 2;
#X obj 701 145 r \$0-w;
#X obj 785 143 r \$0-h;
#X obj 699 188 pack f f;
#X obj 601 310 t b a;
#X msg 559 346 dirty 0;
#X obj 555 384 s \$0-this;
#X msg 546 156 120 254;
#X msg 483 279 donecanvasdialog 1 -1 3 0 -1 1 1 \$1 \$2 100 100;
#X text 673 383 the parent canvas;
#X connect 0 0 14 0;
#X connect 1 0 27 0;
#X connect 2 0 19 0;
#X connect 3 0 2 1;
#X connect 4 0 2 1;
#X connect 6 0 10 0;
#X connect 7 0 12 0;
#X connect 8 0 10 1;
#X connect 9 0 12 1;
#X connect 10 0 11 0;
#X connect 12 0 13 0;
#X connect 14 0 15 0;
#X connect 15 0 3 0;
#X connect 15 1 16 0;
#X connect 15 1 1 0;
#X connect 16 0 14 1;
#X connect 17 0 14 1;
#X connect 17 0 24 1;
#X connect 17 0 22 1;
#X connect 18 0 20 0;
#X connect 18 1 21 0;
#X connect 19 0 4 0;
#X connect 19 0 17 0;
#X connect 19 1 18 0;
#X connect 20 0 6 1;
#X connect 20 1 6 0;
#X connect 20 2 25 0;
#X connect 20 3 24 0;
#X connect 21 0 7 1;
#X connect 21 1 7 0;
#X connect 21 2 23 0;
#X connect 21 3 22 0;
#X connect 22 0 7 1;
#X connect 23 0 22 1;
#X connect 24 0 6 1;
#X connect 25 0 24 1;
#X connect 26 0 2 0;
#X connect 28 0 30 0;
#X connect 29 0 30 1;
#X connect 30 0 35 0;
#X connect 31 0 32 0;
#X connect 31 1 33 0;
#X connect 32 0 33 0;
#X connect 34 0 35 0;
#X connect 35 0 31 0;
#X restore 93 510 pd resize;
#X connect 0 0 32 0;
#X connect 1 0 15 0;
#X connect 4 0 5 0;
#X connect 5 0 6 0;
#X connect 5 1 10 0;
#X connect 6 0 7 0;
#X connect 6 1 0 0;
#X connect 8 0 9 0;
#X connect 9 0 10 0;
#X connect 10 0 0 0;
#X connect 10 1 11 1;
#X connect 11 0 1 0;
#X connect 11 1 6 0;
#X connect 13 0 14 0;
#X connect 14 0 15 1;
#X connect 15 0 16 0;
#X connect 16 0 11 0;
#X connect 16 1 33 0;
#X connect 19 0 21 0;
#X connect 20 0 24 0;
#X connect 21 0 23 0;
#X connect 22 0 21 1;
#X connect 23 0 2 0;
#X connect 24 0 31 0;
#X connect 24 1 19 1;
#X connect 25 0 0 0;
#X connect 26 0 1 0;
#X connect 27 0 29 0;
#X connect 28 0 30 0;
#X connect 29 0 26 0;
#X connect 30 0 29 1;
#X connect 31 0 19 0;
#X connect 32 0 31 0;
#X coords 0 -1 1 1 120 254 2 100 100;
