#N canvas 130 58 1920 1023 16;
#X obj 814 354 - 127;
#X obj 100 102 vsl 15 121 0 127 0 0 empty \$0-slider empty 0 -9 0 10
-128992 -128992 -128992 0 1;
#X obj 805 718 s \$0-cnv;
#X obj 101 100 cnv 1 13 127 empty \$0-cnv empty 2 12 0 10 -233017 -66577
0;
#X obj 574 50 inlet;
#X obj 605 280 t f f;
#X obj 593 341 outlet;
#X obj 869 -11 loadbang;
#X obj 866 26 f \$1;
#X obj 653 136 t f f;
#X obj 281 365 iemguts/receivecanvas 1;
#X obj 281 388 route editmode;
#X obj 97 434 list prepend 0;
#X obj 97 463 route 0 1;
#N canvas 343 299 1326 562 savestate 0;
#X obj 267 276 savestate;
#X obj 379 320 s \$0-save;
#X obj 252 107 v \$0-w;
#X obj 267 305 list trim;
#X obj 299 32 r \$0-save;
#X obj 342 107 v \$0-h;
#X obj 270 414 unpack f f;
#X obj 250 156 pack f f;
#X obj 273 230 list;
#X obj 257 459 s \$0-w;
#X obj 359 454 s \$0-h;
#X msg 250 185 -size \$1 \$2;
#X obj 19 32 loadbang;
#X obj 19 106 spigot 1;
#X msg 88 76 0;
#X obj 425 105 v \$0-back_color;
#X obj 591 103 v \$0-cursor_color;
#X obj 779 99 v \$0-front_color;
#X msg 425 134 -back_color \$1;
#X msg 595 134 -cursor_color \$1;
#X msg 765 134 -front_color \$1;
#X obj 449 449 s \$0-back_color;
#X obj 756 476 s \$0-cursor_color;
#X obj 620 437 s \$0-front_color;
#X obj 965 103 v \$0-spdrt;
#X msg 965 132 -speed_ratio \$1;
#X obj 299 61 t b b b b b b;
#X obj 270 385 route -size -back_color -front_color -cursor_color -speed_ratio
, f 66;
#X obj 852 431 s \$0-spdrt;
#X msg 20 349 -size 15 127 \, -back_color 10 \, -front_color 11 \,
-speed_ratio 100;
#X obj 74 148 inlet;
#X obj 74 177 list split 1;
#X msg 74 206 -\$1;
#X obj 74 235 list append;
#X connect 0 0 3 0;
#X connect 0 0 14 0;
#X connect 0 1 1 0;
#X connect 2 0 7 0;
#X connect 3 0 27 0;
#X connect 4 0 26 0;
#X connect 5 0 7 1;
#X connect 6 0 9 0;
#X connect 6 1 10 0;
#X connect 7 0 11 0;
#X connect 8 0 0 0;
#X connect 11 0 8 0;
#X connect 12 0 13 0;
#X connect 13 0 29 0;
#X connect 14 0 13 1;
#X connect 15 0 18 0;
#X connect 16 0 19 0;
#X connect 17 0 20 0;
#X connect 18 0 8 0;
#X connect 19 0 8 0;
#X connect 20 0 8 0;
#X connect 24 0 25 0;
#X connect 25 0 8 0;
#X connect 26 0 2 0;
#X connect 26 1 5 0;
#X connect 26 2 15 0;
#X connect 26 3 16 0;
#X connect 26 4 17 0;
#X connect 26 5 24 0;
#X connect 27 0 6 0;
#X connect 27 1 21 0;
#X connect 27 2 23 0;
#X connect 27 3 22 0;
#X connect 27 4 28 0;
#X connect 29 0 27 0;
#X connect 30 0 31 0;
#X connect 31 0 32 0;
#X connect 31 1 33 1;
#X connect 32 0 33 0;
#X connect 33 0 3 0;
#X restore 1513 79 pd savestate;
#X obj 1514 31 namecanvas \$0-this;
#X obj 741 522 *;
#X obj 906 393 r \$0-h;
#X obj 996 413 r \$0-w;
#X msg 805 689 vis_size \$1 \$2;
#X obj 906 422 t b f;
#X msg 812 189 0;
#X msg 107 61 size \$1 \$2;
#X obj 117 -2 r \$0-w;
#X obj 201 -4 r \$0-h;
#X obj 107 32 pack f f;
#X obj 275 12 - 6;
#X obj 789 463 f 1;
#X obj 794 397 / -127;
#N canvas 0 50 1005 538 resize 0;
#X obj 51 17 inlet;
#X msg -74 585 dirty 1;
#X obj 157 237 spigot;
#X msg 109 186 1;
#X msg 78 247 0;
#X obj 307 211 t l b;
#X obj 110 479 -;
#X obj 247 472 -;
#X obj 167 512 r \$0-w;
#X obj 298 515 r \$0-h;
#X obj 153 551 +;
#X obj 152 591 s \$0-w;
#X obj 247 546 +;
#X obj 254 586 s \$0-h;
#X obj 57 106 spigot 1;
#X obj 57 135 t b b;
#X msg 129 73 0;
#X msg 79 281 1;
#X obj 154 322 unpack f f f;
#X obj 156 271 route mouseup motion;
#X obj 108 360 t f f b f;
#X obj 229 357 t f f b f;
#X obj 289 433 spigot 1;
#X msg 367 397 0;
#X obj 143 441 spigot 1;
#X msg 212 405 0;
#X obj 235 85 iemguts/receivecanvas 2;
#X obj -71 611 iemguts/sendcanvas 2;
#X obj 699 92 r \$0-w;
#X obj 785 106 r \$0-h;
#X obj 699 229 pack f f;
#X obj 601 310 t b a;
#X msg 559 346 dirty 0;
#X obj 555 384 s \$0-this;
#X msg 546 156 120 254;
#X msg 483 279 donecanvasdialog 1 -1 3 0 -1 1 1 \$1 \$2 100 100;
#X text 673 383 the parent canvas;
#X obj 714 163 t b f;
#X connect 0 0 14 0;
#X connect 1 0 27 0;
#X connect 2 0 19 0;
#X connect 3 0 2 1;
#X connect 4 0 2 1;
#X connect 6 0 10 0;
#X connect 7 0 12 0;
#X connect 8 0 10 1;
#X connect 9 0 12 1;
#X connect 10 0 11 0;
#X connect 12 0 13 0;
#X connect 14 0 15 0;
#X connect 15 0 3 0;
#X connect 15 1 16 0;
#X connect 15 1 1 0;
#X connect 16 0 14 1;
#X connect 17 0 14 1;
#X connect 17 0 24 1;
#X connect 17 0 22 1;
#X connect 18 0 20 0;
#X connect 18 1 21 0;
#X connect 19 0 4 0;
#X connect 19 0 17 0;
#X connect 19 1 18 0;
#X connect 20 0 6 1;
#X connect 20 1 6 0;
#X connect 20 2 25 0;
#X connect 20 3 24 0;
#X connect 21 0 7 1;
#X connect 21 1 7 0;
#X connect 21 2 23 0;
#X connect 21 3 22 0;
#X connect 22 0 7 1;
#X connect 23 0 22 1;
#X connect 24 0 6 1;
#X connect 25 0 24 1;
#X connect 26 0 2 0;
#X connect 28 0 30 0;
#X connect 29 0 37 0;
#X connect 30 0 35 0;
#X connect 31 0 32 0;
#X connect 31 1 33 0;
#X connect 32 0 33 0;
#X connect 34 0 35 0;
#X connect 35 0 31 0;
#X connect 37 0 30 0;
#X connect 37 1 30 1;
#X restore 141 505 pd resize;
#X obj 88 544 moses 117;
#X obj 88 573 moses 10;
#X obj 205 706 t f f;
#X msg 92 835 set \$1;
#X obj 101 878 s \$0-slider;
#X obj 804 648 list prepend 30;
#X obj 83 615 + 107;
#X obj 206 613 - 107;
#X msg 239 782 \$1 -107;
#X msg 123 737 \$1 107;
#X obj 69 665 t f f;
#X obj 551 139 t f f f;
#X obj 344 111 s \$0-cnv;
#X obj 347 49 symbol;
#X msg 344 85 label \$1;
#X msg 440 17 label;
#N canvas 872 542 899 442 gui_properties 0;
#X msg 88 180 set \$1;
#X obj 86 78 max 10;
#X obj 86 107 s \$0-w;
#X obj 92 154 r \$0-w;
#X obj 86 49 r \$0-w-snd;
#X obj 90 207 s \$0-w-rcv;
#X msg 253 181 set \$1;
#X obj 251 50 r \$0-bc-snd;
#X obj 255 208 s \$0-bc-rcv;
#X obj 257 155 r \$0-back_color;
#X obj 251 108 s \$0-back_color;
#X msg 446 182 set \$1;
#X obj 444 51 r \$0-fc-snd;
#X obj 444 109 s \$0-front_color;
#X obj 450 156 r \$0-front_color;
#X obj 448 209 s \$0-fc-rcv;
#X msg 656 182 set \$1;
#X obj 654 51 r \$0-cc-snd;
#X obj 654 109 s \$0-cursor_color;
#X obj 660 156 r \$0-cursor_color;
#X obj 658 209 s \$0-cc-rcv;
#X msg 58 380 set \$1;
#X obj 56 278 max 10;
#X obj 56 249 r \$0-h-snd;
#X obj 56 307 s \$0-h;
#X obj 62 354 r \$0-h;
#X obj 60 407 s \$0-h-rcv;
#X obj 489 290 r \$0-back_color;
#X obj 272 290 r \$0-front_color;
#X msg 273 326 color \$1 \$1 \$1;
#X obj 279 371 s \$0-slider;
#X obj 494 359 s \$0-cnv;
#X msg 494 330 color \$1 -1;
#X msg 666 302 set \$1;
#X obj 668 329 s \$0-spdrt-rcv;
#X obj 670 276 r \$0-spdrt;
#X connect 0 0 5 0;
#X connect 1 0 2 0;
#X connect 3 0 0 0;
#X connect 4 0 1 0;
#X connect 6 0 8 0;
#X connect 7 0 10 0;
#X connect 9 0 6 0;
#X connect 11 0 15 0;
#X connect 12 0 13 0;
#X connect 14 0 11 0;
#X connect 16 0 20 0;
#X connect 17 0 18 0;
#X connect 19 0 16 0;
#X connect 21 0 26 0;
#X connect 22 0 24 0;
#X connect 23 0 22 0;
#X connect 25 0 21 0;
#X connect 27 0 32 0;
#X connect 28 0 29 0;
#X connect 29 0 30 0;
#X connect 32 0 31 0;
#X connect 33 0 34 0;
#X connect 35 0 33 0;
#X restore 1115 337 pd gui_properties;
#X msg 1121 198 vis 1;
#X obj 1125 160 iemguts/propertybang;
#X obj 1207 199 r \$0-ok;
#X msg 1207 228 vis 0;
#X obj 248 56 t b f;
#X obj 996 468 t b f;
#X msg 517 17 label du;
#X obj 996 439 - 2;
#X msg 666 643 vis_size 1 1;
#X obj 741 560 moses 1e-08;
#X msg 1057 688 size 1 1;
#X obj 574 79 route float set label properties;
#X obj 1032 147 t b;
#N canvas 957 152 850 636 multitouch.listener3 0;
#X obj 518 413 v MULTITOUCH.SLOT.ID;
#X msg 594 553 symbol \$1-slot;
#X obj 521 463 select 0;
#X obj 569 676 s;
#X obj 196 396 unpack f f;
#X msg 565 627 send_to \$1;
#X obj 193 673 +;
#X obj 626 66 inlet;
#X obj 513 305 spigot 1;
#X msg 592 275 0;
#X obj 237 220 route list no_mouse remove;
#X obj 565 600 list append \$0-from_slot;
#X obj 242 166 r \$0-from_slot;
#X msg 413 261 1;
#X obj 589 507 t b f b;
#X obj 513 367 t b;
#X obj 673 309 -;
#X obj 193 838 outlet;
#X obj 791 421 == 0;
#X obj 715 469 spigot 1;
#X obj 195 332 spigot;
#X obj 918 106 inlet set;
#X obj 193 702 min 127;
#X obj 193 731 max 0;
#X obj 191 773 t f f f;
#X text 434 550 register callback, f 9;
#X obj 647 268 t f f;
#X obj 599 104 route float list;
#X obj 645 170 unpack f f;
#X obj 714 348 -;
#X msg 599 133 \$1 0;
#X obj 193 512 / 127;
#X obj 193 544 * 127;
#X text 207 138 callback;
#X obj 600 231 t b f;
#X obj 255 545 r ZOOM;
#X obj 193 573 / 1;
#X obj 193 624 * 0.5;
#X text 337 667 speed_ratio(%);
#X obj 338 643 / 100;
#X obj 293 431 * -1;
#X obj 281 476 r \$0-h;
#X obj 338 614 r \$0-spdrt;
#X connect 0 0 2 0;
#X connect 1 0 3 1;
#X connect 2 1 14 0;
#X connect 4 1 40 0;
#X connect 5 0 3 0;
#X connect 6 0 22 0;
#X connect 7 0 27 0;
#X connect 8 0 15 0;
#X connect 9 0 8 1;
#X connect 9 0 0 0;
#X connect 10 0 20 0;
#X connect 10 1 18 0;
#X connect 10 1 20 1;
#X connect 10 2 13 0;
#X connect 11 0 5 0;
#X connect 12 0 10 0;
#X connect 13 0 8 1;
#X connect 14 0 11 0;
#X connect 14 1 1 0;
#X connect 14 2 9 0;
#X connect 15 0 0 0;
#X connect 16 0 29 0;
#X connect 18 0 19 1;
#X connect 19 0 37 0;
#X connect 20 0 4 0;
#X connect 21 0 6 1;
#X connect 22 0 23 0;
#X connect 23 0 24 0;
#X connect 24 0 17 0;
#X connect 24 1 6 1;
#X connect 26 0 16 1;
#X connect 26 1 16 0;
#X connect 27 0 30 0;
#X connect 27 1 28 0;
#X connect 28 0 34 0;
#X connect 28 1 29 1;
#X connect 29 0 19 0;
#X connect 30 0 28 0;
#X connect 31 0 32 0;
#X connect 32 0 36 0;
#X connect 34 0 8 0;
#X connect 34 1 26 0;
#X connect 35 0 36 1;
#X connect 36 0 37 0;
#X connect 37 0 6 0;
#X connect 39 0 37 1;
#X connect 40 0 31 0;
#X connect 41 0 31 1;
#X connect 42 0 39 0;
#X restore 295 167 pd multitouch.listener3;
#N canvas 914 684 402 326 vfader_properties(\$0) 0;
#X floatatom 186 28 5 0 0 0 width #0-w-rcv #0-w-snd;
#X floatatom 188 91 5 0 0 0 back_color #0-bc-rcv #0-bc-snd;
#X floatatom 188 121 5 0 0 0 front_color #0-fc-rcv #0-fc-snd;
#N canvas 0 50 450 300 (subpatch) 0;
#X obj 100 100 cnv 20 20 20 empty \$0-bc_cnv-rcv empty 20 12 0 14 -233017
-66577 0;
#X obj 170 75 r \$0-back_color;
#X msg 170 104 color \$1 \$1;
#X obj 170 132 s \$0-bc_cnv-rcv;
#X connect 1 0 2 0;
#X connect 2 0 3 0;
#X coords 0 -1 1 1 20 20 2 100 100;
#X restore 258 94 pd;
#N canvas 0 50 450 300 (subpatch) 0;
#X obj 100 100 cnv 20 20 20 empty \$0-fc_cnv-rcv empty 20 12 0 14 -128992
-66577 0;
#X msg 170 104 color \$1 \$1;
#X obj 170 75 r \$0-front_color;
#X obj 170 132 s \$0-fc_cnv-rcv;
#X connect 1 0 3 0;
#X connect 2 0 1 0;
#X coords 0 -1 1 1 20 20 2 100 100;
#X restore 258 123 pd;
#X obj 319 145 bng 40 250 50 0 \$0-ok empty OK 5 20 0 20 -204786 -1
-1;
#X floatatom 186 54 5 0 0 0 height #0-h-rcv #0-h-snd;
#N canvas 0 50 450 300 (subpatch) 0;
#X obj 100 100 cnv 20 20 20 empty \$0-cc_cnv-rcv empty 20 12 0 14 -262144
-66577 0;
#X msg 170 104 color \$1 \$1;
#X obj 170 75 r \$0-cursor_color;
#X obj 170 132 s \$0-cc_cnv-rcv;
#X connect 1 0 3 0;
#X connect 2 0 1 0;
#X coords 0 -1 1 1 20 20 2 100 100;
#X restore 259 166 pd;
#X obj 188 165 nbx 3 20 10 200 1 0 \$0-spdrt \$0-spdrt-rcv speed_ratio(%)
-140 10 0 16 -262144 -1 -1 100 256;
#X obj 83 214 cnv 15 200 80 empty empty TODO 20 12 0 14 -262130 -66577
0;
#X floatatom 189 234 5 0 0 0 text_color #0-cc-rcv #0-cc-snd;
#N canvas 0 50 450 300 (subpatch) 0;
#X obj 100 100 cnv 20 20 20 empty \$0-cc_cnv-rcv empty 20 12 0 14 -262144
-66577 0;
#X msg 170 104 color \$1 \$1;
#X obj 170 75 r \$0-cursor_color;
#X obj 170 132 s \$0-cc_cnv-rcv;
#X connect 1 0 3 0;
#X connect 2 0 1 0;
#X coords 0 -1 1 1 20 20 2 100 100;
#X restore 259 236 pd;
#X floatatom 189 264 5 0 0 0 text_size - -;
#X restore 1116 303 pd vfader_properties(\$0);
#X obj 1114 248 s pd-vfader_properties(\$0);
#X connect 0 0 28 0;
#X connect 1 0 12 0;
#X connect 4 0 58 0;
#X connect 5 0 6 0;
#X connect 5 1 0 0;
#X connect 7 0 8 0;
#X connect 8 0 9 0;
#X connect 9 0 60 1;
#X connect 9 1 0 0;
#X connect 10 0 11 0;
#X connect 11 0 12 1;
#X connect 12 0 13 0;
#X connect 13 0 30 0;
#X connect 13 1 29 0;
#X connect 16 0 56 0;
#X connect 17 0 20 0;
#X connect 18 0 54 0;
#X connect 19 0 2 0;
#X connect 20 0 27 0;
#X connect 20 1 16 1;
#X connect 21 0 0 0;
#X connect 22 0 1 0;
#X connect 23 0 25 0;
#X connect 24 0 26 0;
#X connect 25 0 22 0;
#X connect 26 0 51 0;
#X connect 27 0 16 0;
#X connect 28 0 27 0;
#X connect 30 0 31 0;
#X connect 30 1 37 0;
#X connect 31 0 36 0;
#X connect 31 1 60 0;
#X connect 32 0 33 0;
#X connect 32 1 38 0;
#X connect 33 0 34 0;
#X connect 35 0 19 0;
#X connect 36 0 40 0;
#X connect 37 0 32 0;
#X connect 38 0 60 0;
#X connect 39 0 60 0;
#X connect 40 0 33 0;
#X connect 40 1 39 0;
#X connect 41 0 6 0;
#X connect 41 1 60 1;
#X connect 41 2 0 0;
#X connect 43 0 44 0;
#X connect 44 0 42 0;
#X connect 45 0 42 0;
#X connect 47 0 62 0;
#X connect 48 0 47 0;
#X connect 49 0 50 0;
#X connect 50 0 62 0;
#X connect 51 0 25 0;
#X connect 51 1 25 1;
#X connect 52 0 27 0;
#X connect 52 1 35 1;
#X connect 53 0 42 0;
#X connect 54 0 52 0;
#X connect 55 0 2 0;
#X connect 56 0 55 0;
#X connect 56 1 35 0;
#X connect 57 0 2 0;
#X connect 58 0 41 0;
#X connect 58 1 9 0;
#X connect 58 2 43 0;
#X connect 58 3 59 0;
#X connect 58 4 14 0;
#X connect 59 0 47 0;
#X connect 60 0 5 0;
#X coords 0 -1 1 1 15 127 2 100 100;
