#N canvas -38 159 1022 772 16;
#X obj 100 100 tgl 200 0 empty empty empty 17 7 0 10 -262144 -262144
-1 0 1;
#N canvas 225 58 1920 1023 xylistener 1;
#X obj 518 338 v MULTITOUCH.SLOT.ID;
#X msg 594 478 symbol \$1-slot;
#X obj 521 388 select 0;
#X obj 569 601 s;
#X obj 201 293 unpack f f;
#X msg 565 552 send_to \$1;
#X obj 158 471 +;
#X obj 170 565 t f f;
#X obj 593 23 inlet;
#X obj 168 665 outlet;
#X obj 552 247 spigot 1;
#X msg 700 269 0;
#X obj 231 143 route list no_mouse remove;
#X obj 565 525 list append \$0-from_slot;
#X obj 242 91 r \$0-from_slot;
#X msg 653 181 1;
#X obj 318 189 tgl 15 0 empty empty empty 17 7 0 10 -262144 -1 -1 0
1;
#X obj 382 186 bng 15 250 50 0 empty empty empty 17 7 0 10 -262144
-1 -1;
#X obj 513 292 t b;
#X obj 586 125 t f f;
#X obj 508 58 inlet;
#X obj 874 551 outlet;
#X obj 589 432 t b f b b;
#X msg 849 486 1;
#X msg 845 407 0;
#X obj 158 500 max 0;
#X obj 155 432 * 0.5;
#X obj 341 463 +;
#X obj 353 557 t f f;
#X obj 349 659 outlet;
#X obj 341 492 max 0;
#X obj 338 425 * 0.5;
#X obj 925 28 inlet;
#X obj 928 103 t f f;
#X obj 338 367 * -1;
#X obj 158 529 min 200;
#X obj 341 521 min 200;
#X obj 611 59 route float set;
#X obj 924 62 route float set;
#X obj 229 432 * 200;
#X obj 412 429 * 200;
#X obj 115 616 / 200;
#X obj 300 601 / 200;
#X obj 500 779 cyclone/mousestate;
#X msg 504 729 poll;
#X obj 408 896 select 0;
#X msg 408 925 nopoll;
#X floatatom 518 367 5 0 0 0 - - -;
#X obj 534 667 t b b;
#X obj 600 917 -;
#X obj 654 901 spigot;
#X msg 686 866 0;
#X obj 598 833 t f f b f;
#X obj 730 921 -;
#X obj 784 905 spigot;
#X msg 816 870 0;
#X obj 728 837 t f f b f;
#X msg 594 714 1;
#X text 622 666 Pour utiliser la souris quand pas en mode touch;
#X obj 495 845 spigot;
#X msg 494 926 0;
#X connect 0 0 2 0;
#X connect 0 0 47 0;
#X connect 1 0 3 1;
#X connect 2 0 48 0;
#X connect 2 1 22 0;
#X connect 4 0 26 0;
#X connect 4 1 34 0;
#X connect 5 0 3 0;
#X connect 6 0 25 0;
#X connect 7 0 41 0;
#X connect 7 1 6 1;
#X connect 8 0 37 0;
#X connect 10 0 18 0;
#X connect 11 0 10 1;
#X connect 11 0 0 0;
#X connect 12 0 4 0;
#X connect 12 1 16 0;
#X connect 12 2 15 0;
#X connect 12 2 17 0;
#X connect 12 2 24 0;
#X connect 13 0 5 0;
#X connect 14 0 12 0;
#X connect 15 0 10 1;
#X connect 18 0 0 0;
#X connect 19 0 9 0;
#X connect 19 1 39 0;
#X connect 20 0 10 0;
#X connect 22 0 13 0;
#X connect 22 1 1 0;
#X connect 22 2 11 0;
#X connect 22 3 23 0;
#X connect 23 0 21 0;
#X connect 24 0 21 0;
#X connect 25 0 35 0;
#X connect 26 0 6 0;
#X connect 27 0 30 0;
#X connect 28 0 42 0;
#X connect 28 1 27 1;
#X connect 30 0 36 0;
#X connect 31 0 27 0;
#X connect 32 0 38 0;
#X connect 33 0 29 0;
#X connect 33 1 40 0;
#X connect 34 0 31 0;
#X connect 35 0 7 0;
#X connect 36 0 28 0;
#X connect 37 0 19 0;
#X connect 37 1 39 0;
#X connect 38 0 33 0;
#X connect 38 1 40 0;
#X connect 39 0 6 1;
#X connect 40 0 27 1;
#X connect 41 0 9 0;
#X connect 42 0 29 0;
#X connect 43 0 59 0;
#X connect 43 1 52 0;
#X connect 43 2 56 0;
#X connect 44 0 43 0;
#X connect 45 0 46 0;
#X connect 45 0 60 0;
#X connect 45 0 24 0;
#X connect 46 0 43 0;
#X connect 48 0 44 0;
#X connect 48 1 57 0;
#X connect 48 1 23 0;
#X connect 49 0 26 0;
#X connect 50 0 49 1;
#X connect 51 0 50 1;
#X connect 52 0 49 1;
#X connect 52 1 49 0;
#X connect 52 2 51 0;
#X connect 52 3 50 0;
#X connect 53 0 34 0;
#X connect 54 0 53 1;
#X connect 55 0 54 1;
#X connect 56 0 53 1;
#X connect 56 1 53 0;
#X connect 56 2 55 0;
#X connect 56 3 54 0;
#X connect 57 0 50 1;
#X connect 57 0 54 1;
#X connect 57 0 59 1;
#X connect 59 0 45 0;
#X connect 60 0 59 1;
#X restore 285 429 pd xylistener;
#X obj 686 60 multitouch.enable;
#X obj 100 196 cnv 2 200 2 empty \$0-vcursor empty 20 12 0 14 -159808
-66577 0;
#X obj 210 100 cnv 2 2 200 empty \$0-hcursor empty 20 12 0 14 -159808
-66577 0;
#X obj 172 612 s \$0-hcursor;
#X obj 569 601 s \$0-vcursor;
#X obj 135 533 + 100;
#X obj 135 504 * 198;
#X msg 141 569 pos \$1 100;
#X msg 568 564 pos 100 \$1 \, size 2;
#X obj 562 528 + 298;
#X obj 351 148 loadbang;
#X obj 293 575 outlet;
#X obj 392 588 outlet;
#X obj 468 582 outlet;
#X obj 573 215 inlet;
#X obj 672 213 inlet;
#X obj 351 177 list append \$1 \$2;
#X obj 351 206 unpack f f;
#X msg 353 270 set \$1;
#X msg 433 269 set \$1;
#X obj 260 467 t f f;
#X obj 562 499 * -198;
#X obj 564 247 route set;
#X obj 353 469 t f f;
#X obj 672 249 route set;
#X connect 0 0 1 0;
#X connect 1 0 22 0;
#X connect 1 1 25 0;
#X connect 1 2 15 0;
#X connect 7 0 9 0;
#X connect 8 0 7 0;
#X connect 9 0 5 0;
#X connect 10 0 6 0;
#X connect 11 0 10 0;
#X connect 12 0 18 0;
#X connect 16 0 1 1;
#X connect 16 0 24 0;
#X connect 17 0 1 2;
#X connect 17 0 26 0;
#X connect 18 0 19 0;
#X connect 19 0 20 0;
#X connect 19 0 8 0;
#X connect 19 1 21 0;
#X connect 19 1 23 0;
#X connect 20 0 1 1;
#X connect 21 0 1 2;
#X connect 22 0 13 0;
#X connect 22 1 8 0;
#X connect 23 0 11 0;
#X connect 24 0 8 0;
#X connect 25 0 14 0;
#X connect 25 1 23 0;
#X connect 26 0 23 0;
#X coords 0 -1 1 1 200 200 2 100 100;
