#N canvas 0 57 1920 1023 10;
#X obj 518 365 v MULTITOUCH.SLOT.ID;
#X msg 594 505 symbol \$1-slot;
#X obj 521 415 select 0;
#X obj 569 628 s;
#X obj 196 348 unpack f f;
#X msg 565 579 send_to \$1;
#X obj 202 496 +;
#X msg 220 668 set \$1;
#X obj 673 61 inlet;
#X obj 215 717 outlet;
#X obj 514 278 spigot 1;
#X msg 735 419 0;
#X obj 237 172 route list no_mouse remove;
#X obj 565 552 list append \$0-from_slot;
#X obj 242 118 r \$0-from_slot;
#X msg 460 210 1;
#X obj 589 459 t b f b;
#X obj 513 319 t b;
#X obj 817 433 +;
#X obj 775 229 t f f b;
#X obj 842 297 f;
#X obj 778 322 -;
#X obj 370 678 outlet;
#X obj 540 145 t f f f f;
#X obj 869 224 spigot;
#X obj 900 418 == 0;
#X obj 838 479 spigot 1;
#X obj 195 284 spigot;
#X obj 209 604 t f f f f;
#X obj 960 64 inlet set;
#X obj 202 525 max 0;
#X obj 202 554 min 127;
#X obj 199 461 * 0.4;
#X obj 253 389 * -1;
#X obj 772 372 * 0.3;
#X floatatom 119 141 5 0 0 0 - - -;
#X obj 437 404 print \$1;
#X connect 0 0 2 0;
#X connect 0 0 35 0;
#X connect 0 0 36 0;
#X connect 1 0 3 1;
#X connect 2 1 16 0;
#X connect 4 1 33 0;
#X connect 5 0 3 0;
#X connect 6 0 30 0;
#X connect 7 0 9 0;
#X connect 8 0 23 0;
#X connect 10 0 17 0;
#X connect 11 0 10 1;
#X connect 11 0 0 0;
#X connect 12 0 27 0;
#X connect 12 1 25 0;
#X connect 12 1 27 1;
#X connect 12 1 24 1;
#X connect 12 2 15 0;
#X connect 13 0 5 0;
#X connect 14 0 12 0;
#X connect 15 0 10 1;
#X connect 16 0 13 0;
#X connect 16 1 1 0;
#X connect 16 2 11 0;
#X connect 17 0 0 0;
#X connect 18 0 26 0;
#X connect 19 0 21 0;
#X connect 19 2 20 0;
#X connect 20 0 21 1;
#X connect 20 0 18 1;
#X connect 21 0 34 0;
#X connect 23 0 10 0;
#X connect 23 1 6 1;
#X connect 23 2 19 0;
#X connect 23 3 24 0;
#X connect 24 0 20 1;
#X connect 25 0 26 1;
#X connect 26 0 28 0;
#X connect 27 0 4 0;
#X connect 28 0 7 0;
#X connect 28 1 22 0;
#X connect 28 2 6 1;
#X connect 28 3 20 1;
#X connect 29 0 20 1;
#X connect 29 0 6 1;
#X connect 29 0 7 0;
#X connect 30 0 31 0;
#X connect 31 0 28 0;
#X connect 32 0 6 0;
#X connect 33 0 32 0;
#X connect 34 0 18 0;
#X coords 0 -1 1 1 85 60 1 100 100;
